<?xml version="1.0" encoding="UTF-8" standalone="no"?>
<!-- Created with Inkscape (http://www.inkscape.org/) -->

<svg
   width="277.6806mm"
   height="160.33458mm"
   viewBox="0 0 277.6806 160.33458"
   version="1.1"
   id="svg1"
   xml:space="preserve"
   inkscape:version="1.4 (e7c3feb1, 2024-10-09)"
   sodipodi:docname="illustration-2.svg"
   xmlns:inkscape="http://www.inkscape.org/namespaces/inkscape"
   xmlns:sodipodi="http://sodipodi.sourceforge.net/DTD/sodipodi-0.dtd"
   xmlns="http://www.w3.org/2000/svg"
   xmlns:svg="http://www.w3.org/2000/svg"><sodipodi:namedview
     id="namedview1"
     pagecolor="#ffffff"
     bordercolor="#000000"
     borderopacity="0.25"
     inkscape:showpageshadow="2"
     inkscape:pageopacity="0.0"
     inkscape:pagecheckerboard="0"
     inkscape:deskcolor="#d1d1d1"
     inkscape:document-units="mm"
     inkscape:zoom="0.89887065"
     inkscape:cx="524.54711"
     inkscape:cy="303.71444"
     inkscape:window-width="2304"
     inkscape:window-height="1245"
     inkscape:window-x="1808"
     inkscape:window-y="96"
     inkscape:window-maximized="0"
     inkscape:current-layer="svg1" /><defs
     id="defs1" /><g
     inkscape:groupmode="layer"
     id="layer3"
     inkscape:label="Path"
     transform="translate(33.73437,-68.091457)"><path
       style="fill:#000000"
       d="m -28.045829,228.30808 c -1.964531,-0.0878 -3.8159,-0.24427 -4.114153,-0.34772 -1.381245,-0.47908 -1.299644,2.23199 -1.442097,-47.9114 -0.07276,-25.61167 -0.132291,-61.15182 -0.132291,-78.97813 V 68.659376 l 17.859374,-0.189617 c 15.99507503,-0.169823 25.3375487,-0.244272 27.252083,-0.217167 0.363802,0.0052 3.303541,-0.0501 6.532752,-0.122769 3.229212,-0.07267 5.928845,-0.03901 5.999187,0.0748 0.07034,0.113814 4.333883,0.17112 9.474539,0.127347 5.140656,-0.04377 9.52524,-0.0622 9.743521,-0.04095 0.218282,0.02125 45.32274,0.05329 100.232124,0.07121 98.50114,0.03213 99.84028,0.03943 100.21094,0.546156 0.32252,0.440907 0.37568,11.585261 0.37568,78.747374 0,83.23374 0.0555,79.38092 -1.15699,80.38716 -0.31123,0.2583 -28.37582,0.33711 -133.8283,0.37581 -73.388973,0.0269 -135.041837,-0.0229 -137.006369,-0.11065 z m 123.428123,-2.34806 c 1.600729,0.02 4.899416,0.0674 7.330426,0.10533 l 4.42001,0.0691 0.20154,-0.81772 c 0.11085,-0.44975 0.20691,-0.99632 0.21347,-1.2146 0.007,-0.21829 0.20577,-0.8136 0.44269,-1.32292 0.23691,-0.50932 0.63464,-1.69995 0.88383,-2.64583 0.61425,-2.33159 2.18651,-7.1691 2.51414,-7.73548 0.14617,-0.25268 0.26577,-0.70313 0.26577,-1.00098 0,-0.29785 0.29608,-1.12583 0.65795,-1.83995 0.36187,-0.71413 1.02685,-2.22821 1.47774,-3.36465 0.45088,-1.13643 1.22637,-2.89253 1.7233,-3.90244 0.49693,-1.00991 0.90351,-1.98807 0.90351,-2.17369 0,-0.18562 0.35719,-0.70288 0.79375,-1.14948 0.43656,-0.4466 0.79375,-0.98648 0.79375,-1.19975 0,-0.21326 0.0947,-0.38775 0.21041,-0.38775 0.11573,0 0.6092,-0.77753 1.09662,-1.72784 0.48741,-0.95031 0.98998,-1.79197 1.11682,-1.87036 0.12684,-0.0784 0.16444,-0.2496 0.0836,-0.38046 -0.0809,-0.13086 0.39335,-0.92631 1.05385,-1.76766 0.66049,-0.84135 1.20351,-1.64879 1.20671,-1.79431 0.003,-0.14552 0.44976,-0.57928 0.99235,-0.9639 0.58861,-0.41724 1.28607,-1.29362 1.72912,-2.17267 0.80505,-1.59731 1.98101,-3.08113 2.44184,-3.08113 0.35414,0 1.5356,-1.24114 1.95194,-2.05053 0.16842,-0.32742 0.5217,-0.59531 0.78507,-0.59531 0.26337,0 0.70538,-0.25031 0.98225,-0.55625 0.27688,-0.30594 0.86088,-0.73918 1.29778,-0.96276 0.43691,-0.22358 1.45399,-0.896 2.2602,-1.49427 1.46487,-1.08706 1.97024,-1.36181 5.94251,-3.23068 2.66615,-1.25437 5.05635,-1.44147 6.35,-0.49706 0.43656,0.31871 1.09141,0.66977 1.45521,0.78015 1.19886,0.36373 4.86216,2.95287 6.74687,4.76854 1.01865,0.98133 2.12303,1.8874 2.45418,2.01348 0.33115,0.12608 0.68096,0.43477 0.77736,0.68598 0.0964,0.2512 1.29058,1.58849 2.65376,2.97175 1.36317,1.38325 2.77387,3.05772 3.13489,3.72103 0.36102,0.66332 1.05152,1.63733 1.53444,2.16446 0.48292,0.52714 1.14314,1.38737 1.46714,1.91162 0.324,0.52425 0.69386,0.95318 0.8219,0.95318 0.12805,0 0.36868,0.50601 0.53475,1.12448 0.16607,0.61846 0.68233,1.77932 1.14725,2.57969 0.46491,0.80036 1.11422,2.28864 1.4429,3.30729 0.32867,1.01864 1.05355,2.50692 1.61084,3.30729 0.97467,1.39981 3.71955,6.82552 3.71955,7.35231 0,0.1407 0.17744,0.40308 0.39432,0.58307 0.23947,0.19874 0.33564,0.56102 0.2449,0.92257 -0.10137,0.40388 -0.0115,0.64826 0.27951,0.75993 0.31317,0.12017 0.4174,0.46906 0.38618,1.29263 -0.029,0.76624 0.17879,1.55233 0.64798,2.45095 0.3799,0.7276 0.69123,1.65625 0.69184,2.06366 6.1e-4,0.40741 0.19409,1.11394 0.42997,1.57007 0.30694,0.59357 0.38805,1.22475 0.2853,2.22032 -0.27481,2.6626 -1.76857,2.39996 13.85885,2.43672 11.96106,0.0281 13.7374,-0.0183 13.7374,-0.35892 0,-0.21518 -0.10518,-0.39123 -0.23374,-0.39123 -0.41134,0 -0.50524,-1.30357 -0.1171,-1.6257 0.53063,-0.44039 1.64831,0.21667 1.83529,1.07892 0.311,1.43427 0.13797,1.37701 3.60521,1.19287 3.70604,-0.19682 3.21345,-0.19576 17.19598,-0.0367 7.86857,0.0895 10.57671,0.0412 10.7703,-0.19205 0.39075,-0.47082 0.53497,-19.76692 0.6779,-90.69814 0.12682,-62.942439 0.12079,-63.959094 -0.38093,-64.227607 -0.32844,-0.175778 -4.73967,-0.272832 -12.40051,-0.272832 h -11.89072 l -1.48888,0.65845 c -2.8884,1.277391 -4.11891,1.17973 -4.12917,-0.327721 l -0.004,-0.595313 -5.75468,-6.95e-4 c -3.16508,-3.82e-4 -8.13594,-0.07632 -11.04636,-0.168753 l -5.29167,-0.168058 -2.44999,2.312729 c -1.57997,1.491451 -2.59001,2.259002 -2.84427,2.161432 -0.80428,-0.308631 -0.36766,-1.203751 1.35887,-2.785802 1.92072,-1.759985 1.87924,-2.075065 -0.23504,-1.785647 -1.12888,0.154529 -17.84998,0.373314 -43.05769,0.563384 -7.49432,0.05651 -49.380312,0.159955 -93.079978,0.22988 -62.906718,0.10066 -79.536702,0.195827 -79.851348,0.45696 -0.349026,0.289666 -0.387735,3.119031 -0.317936,23.238967 0.04371,12.600026 0.151539,22.968676 0.239616,23.041436 0.08808,0.0728 0.05159,1.05095 -0.08109,2.17375 -0.158366,1.34022 -0.147019,2.38264 0.03303,3.03474 0.179129,0.64875 0.184311,1.08324 0.01494,1.25261 -0.367289,0.36729 -0.319616,0.95765 0.150067,1.85835 0.311102,0.5966 0.34085,0.93709 0.127139,1.45521 -0.153444,0.37201 -0.280815,0.97404 -0.283046,1.33784 -0.0022,0.3638 0.0018,2.38787 0.009,4.49792 0.03222,9.47149 0.01227,11.06553 -0.155287,12.40944 l -0.178198,1.42924 0.845789,-0.16916 c 0.465184,-0.093 2.320348,-0.24799 4.122587,-0.34433 2.814117,-0.15044 3.372166,-0.11269 3.952217,0.26737 0.37148,0.24341 0.675418,0.61421 0.675418,0.82402 0,0.78837 -1.129459,1.0098 -5.283639,1.03581 l -4.109069,0.0257 0.05837,0.66146 c 0.08169,0.92571 0.306208,6.6138 0.355079,8.99583 0.02239,1.09141 -0.03446,2.53613 -0.126336,3.2105 -0.139569,1.02442 -0.08987,1.25577 0.302085,1.40636 0.258024,0.0991 5.648353,0.16398 11.978509,0.14409 8.9040011,-0.028 45.603232,0.0208 49.212499,0.0655 0.363802,0.005 5.066771,-0.076 10.451042,-0.17886 11.599092,-0.22161 10.124796,-0.2179 12.633853,-0.0317 1.280838,0.095 2.050521,0.0537 2.050521,-0.11012 0,-0.14424 -0.303613,-0.33846 -0.674695,-0.4316 -0.433656,-0.10884 -0.645369,-0.32332 -0.592609,-0.60035 0.131601,-0.69102 1.154523,-0.65171 2.42563,0.0932 1.144119,0.6705 1.300908,0.68972 5.367921,0.65811 2.304158,-0.0179 4.487034,-0.0299 4.850836,-0.0267 5.674936,0.0507 15.078277,0.0879 18.388542,0.0727 9.910613,-0.0455 13.290461,-0.0666 14.287499,-0.0892 2.610462,-0.0592 2.782822,-0.003 4.063132,1.33444 0.6757,0.70564 1.43607,1.35643 1.68972,1.4462 0.39445,0.13961 0.44377,0.42434 0.34086,1.96776 -0.0662,0.9925 -0.29475,2.21694 -0.50793,2.72099 -0.48598,1.14904 -2.38803,3.01905 -3.5764,3.51614 l -0.90104,0.37691 0.7026,0.46036 c 0.38643,0.2532 0.7026,0.69831 0.7026,0.98914 0,0.48052 -0.11414,0.51166 -1.25056,0.34125 -0.68781,-0.10315 -1.695098,-0.41432 -2.238419,-0.6915 -0.543321,-0.27719 -1.214668,-0.50397 -1.491883,-0.50397 -0.620154,0 -1.898305,-0.97093 -1.898305,-1.44202 0,-0.74941 0.77684,-1.05307 1.916115,-0.74898 1.355423,0.36179 1.644909,0.24892 2.163245,-0.84339 0.649727,-1.3692 1.984477,-1.60795 1.473327,-0.26354 -0.55256,1.45336 1.30521,0.3976 2.12377,-1.20693 0.67459,-1.32229 0.68131,-2.74779 0.0161,-3.41301 -0.32208,-0.32208 -0.45557,-0.71588 -0.36285,-1.07043 0.0954,-0.36472 -0.0272,-0.69725 -0.35037,-0.95074 -0.42629,-0.33435 -2.05999,-0.37015 -11.477253,-0.25153 -26.517203,0.33401 -32.418933,0.45717 -32.845436,0.68543 -0.249551,0.13355 -0.618933,0.17943 -0.820849,0.10195 -0.201916,-0.0775 -0.700075,0.16769 -1.107021,0.54484 -0.49058,0.45465 -0.974371,0.65847 -1.435723,0.60484 -0.860819,-0.10004 -1.090063,-0.95157 -0.398387,-1.47981 0.473543,-0.36164 0.472157,-0.37057 -0.03737,-0.24051 -1.649218,0.42094 -2.199725,0.51418 -2.976563,0.50409 -0.472942,-0.006 -0.889661,-0.0254 -0.926041,-0.0427 -0.634315,-0.30223 -19.452331,-0.58942 -19.631445,-0.2996 -0.07838,0.12681 0.124566,0.29838 0.450982,0.38126 1.083813,0.27519 1.294575,1.00179 0.872239,3.00705 -0.207756,0.98642 -0.295935,1.8725 -0.195955,1.96906 0.09998,0.0966 0.47944,0.21562 0.843242,0.26459 0.535381,0.0721 0.678487,-0.0371 0.750798,-0.57244 0.182276,-1.34955 1.89029,-2.40576 3.212006,-1.98626 0.294312,0.0934 0.535112,0.36172 0.535112,0.59624 0,0.23452 0.143646,0.82365 0.319214,1.30918 0.266737,0.73764 0.249158,1.00171 -0.106929,1.60628 -0.234378,0.39794 -0.48953,1.12843 -0.567004,1.62332 -0.211534,1.35124 -0.715923,1.70659 -2.340699,1.64909 -0.770529,-0.0273 -1.555213,-0.20384 -1.743743,-0.39237 -0.736379,-0.73638 0.393423,-1.75965 1.942844,-1.75965 1.030166,0 0.827023,-0.87164 -0.284202,-1.21945 -0.720976,-0.22566 -1.031364,-0.21236 -1.389063,0.0595 -0.336974,0.25612 -1.028833,0.30844 -2.577293,0.19487 -2.362364,-0.17325 -2.778125,-0.45124 -2.778125,-1.85752 0,-1.11753 0.870746,-1.75253 2.073352,-1.51201 0.789384,0.15788 0.837065,0.12265 0.837065,-0.6184 0,-0.44766 -0.225871,-0.99023 -0.524887,-1.26083 -0.343554,-0.31092 -0.474765,-0.67473 -0.379802,-1.05309 l 0.145086,-0.57807 -26.541552,0.0726 c -29.482932,0.0807 -33.534207,0.13399 -34.01915,0.44772 -0.265632,0.17184 -0.33189,6.40267 -0.324263,30.49323 l 0.0096,30.27725 h 0.654992 c 0.360246,0 0.65499,0.0893 0.654987,0.19843 -3e-6,0.10914 27.4736684,0.16183 61.052603,0.11709 33.578934,-0.0447 62.362296,-0.065 63.963025,-0.0451 z M 205.4825,221.62191 c -0.8058,-1.37499 -0.87295,-1.96606 -0.25051,-2.20491 0.31303,-0.12013 0.747,0.17032 1.46735,0.98206 1.18786,1.33855 1.25181,2.20311 0.17222,2.3283 -0.578,0.067 -0.81027,-0.11782 -1.38906,-1.10545 z m -6.49709,-4.62855 c -0.15479,-0.28922 -0.205,-0.72503 -0.11158,-0.96847 0.0934,-0.24343 0.0135,-1.47245 -0.17753,-2.73114 -0.29797,-1.96304 -0.47279,-2.42977 -1.22913,-3.28149 -0.96744,-1.08944 -1.08078,-1.5552 -0.49647,-2.04014 0.5139,-0.42649 0.69318,-0.28506 2.14485,1.69201 0.9474,1.2903 1.50145,1.78425 2.33275,2.07972 0.59963,0.21313 1.56649,0.55579 2.14857,0.76147 0.74716,0.26401 1.05834,0.52632 1.05834,0.89214 0,0.40427 -0.17447,0.5133 -0.79375,0.49602 -0.43656,-0.0122 -1.00211,-0.11422 -1.25677,-0.22675 -0.7638,-0.3375 -0.5556,0.44843 0.47707,1.80088 0.98822,1.29423 0.99783,1.7565 0.0365,1.7535 -0.55305,-0.002 -1.49966,-1.07903 -1.91641,-2.181 -0.35836,-0.94756 -0.69438,-0.43393 -0.60582,0.92604 0.087,1.33649 0.0636,1.39216 -0.61936,1.47106 -0.49307,0.057 -0.79574,-0.0786 -0.99124,-0.44385 z m -4.64408,-10.80352 c -0.25863,-0.40748 -0.76796,-1.06119 -1.13182,-1.45269 -0.67904,-0.73059 -0.66413,-1.53715 0.0284,-1.53715 0.5413,0 2.85866,2.63707 2.76225,3.14334 -0.14304,0.75112 -1.1434,0.65855 -1.65883,-0.1535 z m 3.05585,-1.37704 c -1.03443,-1.45273 -0.50125,-2.32318 2.04776,-3.3431 1.23188,-0.4929 1.24105,-0.51117 0.72483,-1.44392 -0.25706,-0.46447 -0.28394,-0.75913 -0.0905,-0.99219 0.41685,-0.50227 0.79614,-0.3939 1.64349,0.4696 0.42444,0.43252 0.87092,0.7864 0.99219,0.7864 0.44483,0 0.20348,0.98205 -0.37483,1.52518 -0.32742,0.3075 -1.2782,0.82037 -2.11285,1.13971 -1.36656,0.52286 -1.50183,0.64327 -1.35952,1.21026 0.15105,0.60184 -0.25682,1.41651 -0.70919,1.41651 -0.1178,0 -0.46041,-0.3458 -0.76136,-0.76845 z m -7.46856,-3.92541 c -1.20262,-1.24351 -1.39002,-1.92113 -0.53105,-1.92029 0.59681,5.9e-4 2.47932,2.03821 2.37585,2.57161 -0.15184,0.78277 -0.61653,0.61871 -1.8448,-0.65132 z m 4.86358,0.0486 c -0.83917,-0.58778 -0.72577,-1.21164 0.35394,-1.94701 0.51609,-0.3515 1.05525,-0.85752 1.19812,-1.12448 0.14288,-0.26696 0.49533,-0.48538 0.78322,-0.48538 0.2879,0 0.74419,-0.13785 1.01398,-0.30634 0.69917,-0.43664 1.40997,-0.0908 1.30678,0.63589 -0.0578,0.4068 -0.29505,0.62418 -0.74616,0.68357 -0.3638,0.0479 -0.93416,0.37532 -1.26748,0.72761 -0.33331,0.35228 -0.72026,0.64052 -0.85989,0.64052 -0.13963,0 -0.25388,0.21431 -0.25388,0.47625 0,0.4551 -0.46516,1.11125 -0.78779,1.11125 -0.084,0 -0.41741,-0.18535 -0.74084,-0.41188 z m -2.78261,-2.77559 c -0.83512,-1.27553 -0.86367,-1.51082 -0.28379,-2.3387 0.36211,-0.51699 0.37282,-0.65435 0.0661,-0.84857 -0.52017,-0.32945 -0.8532,-0.29507 -1.43981,0.14862 -0.69389,0.52483 -1.68247,0.50524 -1.89073,-0.0375 -0.11648,-0.30356 0.10511,-0.67235 0.70483,-1.17302 0.82726,-0.69063 0.98533,-1.55921 0.28374,-1.55921 -0.15009,0 -0.27289,-0.1786 -0.27289,-0.39688 0,-0.55 -0.2098,-0.50147 -1.24474,0.28792 -0.96412,0.73537 -1.66567,0.69275 -1.66567,-0.1012 0,-0.57409 0.84056,-1.40318 2.03374,-2.00597 0.46371,-0.23427 0.9174,-0.54613 1.00818,-0.69303 0.0908,-0.14689 -0.21873,-0.80152 -0.68783,-1.45472 -0.83018,-1.15601 -0.84008,-1.20179 -0.37186,-1.71917 0.72787,-0.8043 1.07968,-0.66202 2.23708,0.90469 0.58356,0.78993 1.27192,1.59477 1.5297,1.78853 0.25778,0.19377 0.68013,0.60203 0.93855,0.90726 0.45085,0.53252 0.44969,0.57988 -0.0286,1.17059 l -0.4985,0.61563 -0.73464,-0.57787 c -0.83124,-0.65385 -1.21382,-0.71525 -1.66227,-0.2668 -0.23836,0.23836 -0.12706,0.42296 0.47625,0.78986 0.43303,0.26334 0.78732,0.65608 0.78732,0.87276 0,0.21669 0.36325,0.58181 0.80721,0.8114 0.61284,0.31691 0.76783,0.54154 0.64363,0.93284 -0.14277,0.44982 -0.0341,0.51541 0.85371,0.51541 1.98564,0 2.95465,1.60565 1.53169,2.53801 -0.36392,0.23845 -0.81152,0.74721 -0.99466,1.13058 -0.53016,1.10975 -1.29819,1.0225 -2.12574,-0.24148 z m -7.91234,-3.19746 c -1.2125,-1.28186 -1.42231,-2.08174 -0.54605,-2.08174 0.56856,0 2.98005,2.4032 2.98005,2.9698 0,0.89415 -1.14254,0.47729 -2.434,-0.88806 z m -4.51131,-4.03902 c -1.03622,-0.91584 -1.26816,-1.65759 -0.59865,-1.91451 0.44133,-0.16935 2.78146,1.90801 2.78146,2.46914 0,0.6321 -1.17907,0.33251 -2.18281,-0.55463 z m -4.29948,-3.6466 c -1.24678,-1.01717 -1.65567,-1.78231 -1.05833,-1.98038 0.48615,-0.1612 3.175,1.90448 3.175,2.43917 0,0.8381 -0.7177,0.68254 -2.11667,-0.45879 z m 3.98765,-1.16189 c -0.55798,-0.55798 -0.52569,-1.75086 0.0683,-2.52511 0.26628,-0.34705 0.56123,-0.84205 0.65546,-1.10001 0.0942,-0.25797 0.38239,-0.54824 0.64035,-0.64507 0.25796,-0.0968 0.60026,-0.35107 0.76065,-0.56501 0.25307,-0.33753 0.38539,-0.3222 1.00066,0.1159 0.62327,0.4438 0.6906,0.63128 0.55666,1.55007 -0.20546,1.40943 -0.56748,1.79492 -1.49445,1.59132 -0.56267,-0.12358 -0.79474,-0.0533 -0.92244,0.27952 -0.0951,0.24784 -0.0194,0.53812 0.17107,0.65583 0.48151,0.29759 0.1207,1.05833 -0.50197,1.05833 -0.28521,0 -0.70567,-0.1871 -0.93434,-0.41577 z m -8.48557,-2.05956 c -0.29104,-0.31206 -0.81791,-0.75458 -1.17083,-0.98338 -0.44038,-0.28551 -0.58685,-0.55882 -0.46694,-0.8713 0.14692,-0.38287 0.27005,-0.40531 0.77395,-0.14103 1.10102,0.57744 2.58361,1.86533 2.58361,2.24432 0,0.56478 -1.11096,0.40418 -1.71979,-0.24861 z m 5.98305,0.11817 c -0.2265,-0.14344 -0.31604,-0.49875 -0.23392,-0.9283 0.13697,-0.71652 -0.15971,-1.16506 -0.45479,-0.6876 -0.26518,0.42905 -1.1933,0.31424 -1.1933,-0.14762 0,-0.22909 0.63411,-1.09229 1.40913,-1.91823 1.29424,-1.37929 1.38711,-1.56114 1.13907,-2.23068 -0.33553,-0.90571 0.0576,-1.38923 0.94785,-1.16579 0.41055,0.10304 0.74329,0.48554 0.97159,1.1169 0.33904,0.93761 0.32637,0.97777 -0.53886,1.70716 -0.71294,0.60102 -0.82145,0.81325 -0.55534,1.08623 0.43813,0.44943 0.41722,0.9153 -0.10209,2.2751 -0.43578,1.14108 -0.71451,1.3202 -1.38934,0.89283 z m -4.07901,-2.14716 c -0.72891,-0.57335 -0.95228,-1.45738 -0.41361,-1.63693 0.16488,-0.055 0.43277,-0.51137 0.59531,-1.01424 0.24018,-0.74309 0.47882,-0.95959 1.27442,-1.15616 0.71119,-0.17571 1.09107,-0.14876 1.38906,0.0985 0.74667,0.61968 0.47398,1.55243 -0.86081,2.94447 l -1.27096,1.32548 z m -7.82699,-1.74395 c -1.29045,-0.84843 -1.3861,-0.97586 -1.01271,-1.34925 0.44303,-0.44303 0.55999,-0.41407 2.17316,0.53804 0.64316,0.3796 1.05834,0.8215 1.05834,1.12646 0,0.79288 -0.68036,0.69622 -2.21879,-0.31525 z m 5.52608,-0.89548 c -0.18268,-0.34133 -0.55399,-0.52916 -1.04607,-0.52916 -0.57438,0 -0.89522,-0.21246 -1.29858,-0.8599 -0.29464,-0.47294 -0.7806,-1.00973 -1.07991,-1.19287 -0.80201,-0.49072 -0.66567,-1.15759 0.41256,-2.01791 0.52621,-0.41986 1.18097,-1.2703 1.45503,-1.88986 0.27406,-0.61956 0.67838,-1.19557 0.89847,-1.28003 0.49639,-0.19048 1.71683,0.33967 1.71683,0.74578 0,0.16469 -0.65122,1.00878 -1.44715,1.87576 -1.52621,1.66244 -1.73184,2.21467 -1.03883,2.78982 0.23344,0.19374 0.53146,0.63374 0.66227,0.97778 l 0.23782,0.62553 0.66065,-0.78514 c 0.36336,-0.43183 0.66066,-1.02882 0.66066,-1.32665 0,-0.74856 0.33999,-0.88735 1.01521,-0.4144 0.76773,0.53774 0.72691,1.53372 -0.0892,2.17565 -0.3638,0.28616 -0.66146,0.77106 -0.66146,1.07753 0,0.70889 -0.68426,0.72703 -1.05833,0.0281 z m -64.75677,-1.84918 c -0.82382,-0.50229 -0.85972,-0.59383 -0.85555,-2.18183 0.004,-1.68584 0.757,-3.59189 1.51687,-3.84178 0.52619,-0.17304 0.70689,0.71483 0.34767,1.70824 -0.31207,0.86301 -0.2765,0.99308 0.65534,2.39653 l 0.98532,1.484 -0.59346,0.48055 c -0.74898,0.60649 -0.99549,0.60101 -2.05619,-0.0457 z m 3.83646,0.15795 c -0.74692,-0.56699 -0.55036,-1.04286 0.97452,-2.35935 1.57468,-1.35948 1.77703,-1.43413 2.27167,-0.83813 0.47626,0.57386 -0.40244,2.43468 -1.45189,3.07467 -0.94463,0.57606 -1.17634,0.59192 -1.7943,0.12281 z m 49.54732,-0.57016 c -0.6526,-0.35696 -1.40047,-0.64902 -1.66195,-0.64902 -0.57013,0 -0.90533,-0.71766 -0.51671,-1.10627 0.19288,-0.19288 0.84766,-0.0469 2.15698,0.4808 1.49705,0.6034 1.8655,0.86133 1.8087,1.2662 -0.10326,0.73611 -0.45347,0.73774 -1.78702,0.008 z m 14.18884,-1.38173 c -0.0795,-0.12859 -0.0752,-0.49883 0.01,-0.82276 0.10833,-0.41423 0.3204,-0.56522 0.71485,-0.50894 0.7978,0.11385 0.78974,1.37032 -0.01,1.48422 -0.31369,0.0447 -0.63537,-0.0239 -0.71484,-0.15252 z M 7.9479221,174.1153 c -0.1647098,-0.30776 -0.2262936,-0.67797 -0.1368528,-0.82269 0.249847,-0.40426 1.95606,-1.04886 2.7762727,-1.04886 0.424443,0 0.800751,-0.17622 0.893729,-0.41851 0.236915,-0.61739 0.219356,-0.63982 -0.500859,-0.63982 -0.82624,0 -1.7224929,-0.86599 -1.7114303,-1.65365 0.013732,-0.97771 1.1528943,-2.05052 2.1773363,-2.05052 0.968077,0 1.710712,0.43448 1.808962,1.05834 0.03438,0.21828 -0.03188,0.85247 -0.147239,1.40931 -0.129354,0.62439 -0.09942,1.25457 0.07811,1.64419 0.177463,0.38949 0.191818,0.69112 0.03743,0.78653 -0.137729,0.0851 -0.349435,0.53586 -0.470458,1.00164 -0.215613,0.82983 -0.251636,0.84725 -1.790127,0.86591 -0.863547,0.0105 -1.8277823,0.11099 -2.1427446,0.22337 -0.4386862,0.15653 -0.64272,0.0734 -0.8721313,-0.35524 z m 3.4688529,-4.64967 c 0,-0.13825 -0.127993,-0.29402 -0.284427,-0.34617 -0.156435,-0.0521 -0.284427,0.10363 -0.284427,0.34617 0,0.24253 0.127992,0.3983 0.284427,0.34616 0.156434,-0.0521 0.284427,-0.20792 0.284427,-0.34616 z m 140.454055,4.61428 c -0.50932,-0.26831 -1.1344,-0.49354 -1.38906,-0.50053 -0.43892,-0.012 -0.63375,-0.54753 -0.31514,-0.86615 0.17349,-0.17349 2.74333,0.72839 3.10443,1.0895 0.25346,0.25345 0.0363,0.84496 -0.29136,0.79363 -0.10055,-0.0157 -0.59954,-0.24815 -1.10887,-0.51645 z m -39.81559,-1.02918 c -0.0901,-0.28377 0.021,-0.87317 0.24675,-1.30978 0.22578,-0.43661 0.41051,-1.33014 0.41051,-1.98561 0,-1.14004 0.0381,-1.19892 0.87767,-1.35643 0.48272,-0.0906 1.28639,-0.12572 1.78594,-0.0781 0.7014,0.0668 0.90827,0.20644 0.90827,0.61308 0,0.37664 -0.226,0.56763 -0.79375,0.67078 -0.69155,0.12564 -0.78523,0.24521 -0.72755,0.92864 0.0682,0.80857 -0.28585,1.76088 -0.95569,2.57037 -0.52009,0.6285 -1.54571,0.59752 -1.75215,-0.0529 z m -70.958412,-0.95334 c -1.552475,-0.68003 -2.009342,-1.93115 -1.360462,-3.7256 0.586452,-1.6218 2.946069,-1.94287 3.628048,-0.49366 0.205441,0.43656 0.499942,0.87621 0.654448,0.97699 0.161991,0.10567 -0.02332,0.29892 -0.43772,0.45648 -0.781626,0.29717 -0.95551,0.93256 -0.321764,1.17575 0.57371,0.22015 0.494749,1.42082 -0.114897,1.74709 -0.645488,0.34546 -1.000319,0.32171 -2.047653,-0.13705 z m 0.839633,-3.5578 c 0.08994,-0.14553 0.03743,-0.26459 -0.116676,-0.26459 -0.154109,0 -0.280198,0.11906 -0.280198,0.26459 0,0.14552 0.0525,0.26458 0.116676,0.26458 0.06417,0 0.190262,-0.11906 0.280198,-0.26458 z m 93.401879,3.71057 c -0.14879,-0.24074 -2.24606,-1.63272 -3.44355,-2.28552 -0.78249,-0.42657 -0.82992,-1.33747 -0.0816,-1.56658 0.58058,-0.17775 2.54964,-1.03518 4.3506,-1.89449 1.05782,-0.50473 1.79397,-0.36419 1.89796,0.36235 0.058,0.40536 -0.0947,0.62188 -0.52917,0.75001 -0.99072,0.2922 -2.5809,1.04255 -2.58828,1.22131 -0.01,0.23109 1.4372,0.49532 2.73822,0.50011 1.33525,0.005 3.40845,0.5971 3.54715,1.0132 0.16486,0.4946 -0.66309,0.65116 -1.86531,0.35271 -0.61578,-0.15286 -1.8935,-0.35347 -2.83939,-0.44579 l -1.71979,-0.16785 0.90277,0.77451 c 0.61006,0.52339 0.84867,0.91551 0.73591,1.20936 -0.18324,0.47753 -0.85342,0.58462 -1.10555,0.17667 z m 10.31479,-0.12417 c -1.06861,-0.33004 -1.42765,-0.99449 -0.62128,-1.14979 0.68057,-0.13106 2.34107,0.66459 2.34107,1.12176 0,0.47396 -0.26211,0.47823 -1.71979,0.028 z m 9.14732,-0.31479 c -0.88453,-1.12451 -0.59527,-2.04421 0.40484,-1.28718 0.2761,0.20899 0.65083,0.38377 0.83273,0.3884 0.51597,0.0131 0.38848,-0.62198 -0.19844,-0.98852 -0.71725,-0.44793 -0.66534,-1.01831 0.14075,-1.54648 0.60856,-0.39874 0.63279,-0.47996 0.26458,-0.88683 -0.52886,-0.58439 -0.5194,-1.33225 0.0169,-1.33225 0.23221,0 0.73823,0.16925 1.12448,0.37612 0.38626,0.20686 0.91334,0.44229 1.1713,0.52316 0.7556,0.23689 0.84846,0.92758 0.20528,1.52679 -0.39188,0.36509 -0.53669,0.73407 -0.43973,1.12039 0.28762,1.14598 -1.25779,2.80354 -2.61384,2.80354 -0.19824,0 -0.60721,-0.31372 -0.90882,-0.69714 z m -170.671052,0.0923 c -0.992164,-0.502 -1.263666,-1.57392 -0.756137,-2.9853 0.401548,-1.11665 0.398283,-1.17236 -0.0687,-1.17236 -0.269653,0 -0.68531,-0.29766 -0.923682,-0.66146 -0.633927,-0.9675 -1.430879,-0.88002 -1.430879,0.15706 0,0.596 0.143855,0.85614 0.529167,0.9569 0.728568,0.19052 0.673506,1.0414 -0.07962,1.23043 -0.487009,0.12223 -0.614191,0.34336 -0.635793,1.10544 -0.01485,0.52396 -0.06913,0.99478 -0.120609,1.04626 -0.05148,0.0515 -0.509516,0.006 -1.017853,-0.1 -1.016623,-0.21295 -0.975911,-0.0164 -0.637876,-3.0798 0.143042,-1.2963 0.09565,-1.66071 -0.253671,-1.95062 -0.627108,-0.52046 -0.537507,-1.31609 0.165737,-1.47171 0.327422,-0.0725 1.547812,-0.10448 2.711979,-0.0712 l 2.116666,0.0605 0.07909,1.21877 c 0.07595,1.17044 0.121021,1.23133 1.136427,1.53555 1.159289,0.34734 1.562607,1.00402 1.562607,2.54426 0,0.5836 -0.202951,1.08759 -0.579057,1.43799 -0.671964,0.62603 -0.903529,0.65169 -1.797799,0.19922 z m 1.270779,-2.26016 c 0.05495,-0.37345 -0.05535,-0.57459 -0.315114,-0.57459 -0.514508,0 -0.785075,0.44321 -0.58649,0.96072 0.215457,0.56147 0.798939,0.31158 0.901604,-0.38613 z m 7.0675232,2.17406 c -0.2852884,-0.28529 -0.4068028,-0.80738 -0.3669775,-1.57675 0.054901,-1.0606 0.1433543,-1.19122 1.1351402,-1.67636 0.5915798,-0.28937 1.283959,-0.58816 1.5386205,-0.66399 0.5993588,-0.17845 0.6149588,-1.44024 0.023156,-1.87297 -0.7721182,-0.56459 -0.2421594,-1.2364 0.9007589,-1.14186 0.9716546,0.0804 0.9962131,0.10879 1.0776537,1.24726 0.045837,0.64076 -0.1029912,1.7347 -0.3307292,2.43097 -0.5451701,1.66676 -0.529763,1.79708 0.2473894,2.09255 0.6920722,0.26313 0.8996096,1.00159 0.3307291,1.17681 -0.181901,0.056 -1.1853904,0.17139 -2.2299763,0.25636 -1.5388185,0.12518 -1.9801895,0.0736 -2.3257648,-0.27202 z m 6.88116135,0.0697 c -0.39509595,-0.2889 -0.45464975,-0.56329 -0.31364403,-1.44509 0.14741471,-0.92188 0.0928321,-1.13195 -0.35662102,-1.37249 -0.9056593,-0.48469 -0.6541672,-1.05965 0.46151176,-1.05509 1.39082958,0.006 1.77542372,0.32283 1.70260835,1.40404 -0.0414205,0.61503 0.0697832,0.96211 0.34169139,1.06645 0.238405,0.0915 0.403096,0.48238 0.403096,0.95674 0,0.73142 -0.0771,0.80205 -0.87547189,0.80205 -0.48150956,0 -1.09493632,-0.16047 -1.36317056,-0.35661 z m 3.81738555,-0.0508 c -0.2632814,-0.31724 -0.2717895,-0.6236 -0.038434,-1.38394 0.2802672,-0.9132 0.2529132,-1.01504 -0.421867,-1.5707 -1.0275753,-0.84617 -0.4388065,-1.1256 2.0277465,-0.96236 2.6905806,0.17806 3.0436246,0.39034 2.8335887,1.70383 -0.1254656,0.78462 -0.076784,1.03309 0.2024076,1.03309 0.2021827,0 0.5092138,0.17063 0.6822913,0.37918 0.4836697,0.58278 -0.7667569,1.31118 -1.8445178,1.07447 -0.9968237,-0.21894 -1.2371893,-0.73912 -0.8345056,-1.80595 0.3557817,-0.94257 0.280637,-1.08015 -0.4613468,-0.84465 -0.3949117,0.12534 -0.5491058,0.39705 -0.5491058,0.96759 0,1.54594 -0.855824,2.3016 -1.5962571,1.40944 z m 12.2269159,-0.20366 c -0.72348,-0.77011 -0.779448,-1.56639 -0.222701,-3.16848 0.573601,-1.65058 0.562626,-1.74315 -0.243006,-2.04945 -0.947722,-0.36032 -0.664904,-0.90121 0.523444,-1.00108 1.314429,-0.11047 1.74638,0.27902 1.562957,1.40933 -0.129323,0.79692 -0.06963,0.9155 0.537608,1.0679 0.375696,0.0943 0.821608,0.33836 0.990916,0.54236 0.444686,0.53582 0.772206,0.45595 0.772206,-0.18829 0,-0.51155 0.09993,-0.54422 1.172587,-0.38337 0.75021,0.1125 1.357071,0.0606 1.684744,-0.144 0.664748,-0.41515 1.303515,-0.15574 1.686537,0.68489 0.261677,0.57432 0.223054,0.75975 -0.266873,1.28125 -0.315056,0.33537 -0.572828,0.68596 -0.572828,0.77911 0,0.31618 -1.345065,1.51633 -1.699422,1.51633 -0.193848,0 -0.500671,-0.1786 -0.681828,-0.39688 -0.181158,-0.21828 -0.493393,-0.39687 -0.693856,-0.39687 -0.200463,0 -0.364478,-0.1786 -0.364478,-0.39688 0,-0.59185 -0.462668,-0.47974 -0.923652,0.22381 -0.436597,0.66633 -1.454255,1.2314 -2.217676,1.2314 -0.258829,0 -0.728934,-0.27499 -1.044679,-0.61108 z m 2.016424,-1.29392 c 0.373158,-0.37316 0.425808,-1.27 0.07456,-1.27 -0.585004,0 -1.079973,0.35655 -1.079973,0.77796 0,0.80141 0.467339,1.03012 1.005417,0.49204 z m 2.963333,-0.88582 c 0,-0.49712 -0.522034,-0.76173 -0.851935,-0.43183 -0.39511,0.39511 -0.04754,1.12995 0.445045,0.94093 0.22379,-0.0859 0.40689,-0.31497 0.40689,-0.5091 z m -32.006988,2.13851 c -0.210326,-0.25342 -0.259001,-0.75932 -0.14053,-1.46055 0.173039,-1.0242 0.144186,-1.08574 -0.636656,-1.35795 -0.449849,-0.15681 -0.817908,-0.44379 -0.817908,-0.63771 0,-0.45739 0.996177,-0.60174 1.903659,-0.27585 0.517899,0.18598 0.902754,0.15452 1.4062866,-0.11497 0.9090206,-0.48649 1.5848457,-0.0798 1.5848457,0.9537 0,0.6404 -0.1269474,0.78408 -0.79375,0.89837 -0.6812708,0.11677 -0.8061734,0.26678 -0.8814203,1.05862 -0.120828,1.2715 -0.949822,1.74931 -1.624527,0.93634 z m 36.387616,-0.20031 c -0.525333,-0.75002 -0.525132,-1.86506 5.18e-4,-2.88156 0.55441,-1.07211 1.024615,-0.84029 1.126206,0.55523 0.06127,0.84163 0.25695,1.28207 0.737562,1.66012 0.516826,0.40654 0.589728,0.59222 0.347231,0.88441 -0.481055,0.57964 -1.739672,0.45545 -2.211517,-0.2182 z m 82.510372,-0.30676 c -0.3594,-0.93659 2.20709,-2.32912 3.42869,-1.86034 0.81489,0.3127 0.43111,0.78586 -1.22125,1.50567 -1.9043,0.82956 -2.01819,0.84786 -2.20744,0.35467 z M 152.4,170.78854 c 0,-0.4493 -0.41432,-0.53217 -0.66146,-0.13229 -0.29467,0.47679 -1.41469,0.27959 -1.83708,-0.32345 -0.58411,-0.83393 -0.51209,-1.94382 0.16718,-2.57666 0.68947,-0.64234 1.54358,-0.6868 2.60908,-0.1358 0.74538,0.38545 1.05572,0.91925 0.53443,0.91925 -0.4813,0 -0.41488,1.19095 0.0898,1.61079 0.27837,0.23155 0.41983,0.55818 0.31512,0.72761 -0.27591,0.44642 -1.21711,0.37726 -1.21711,-0.0894 z m -1.05833,-1.5875 c 0,-0.21828 -0.11907,-0.39687 -0.26459,-0.39687 -0.14552,0 -0.26458,0.17859 -0.26458,0.39687 0,0.21828 0.11906,0.39688 0.26458,0.39688 0.14552,0 0.26459,-0.1786 0.26459,-0.39688 z m -4.18042,0.34396 c -0.17462,-0.17462 -0.3175,-0.70338 -0.3175,-1.17501 0,-1.24683 -0.40198,-1.29825 -0.76176,-0.0974 -0.34963,1.16695 -0.58891,1.39963 -1.19874,1.16562 -0.58948,-0.22621 -0.53037,-1.47631 0.12209,-2.58214 0.46768,-0.79265 0.5913,-1.32902 0.75323,-3.26808 0.0148,-0.17678 0.28676,-0.46052 0.60443,-0.63054 0.86325,-0.46199 1.53908,0.49172 1.53908,2.17189 0,0.71149 0.0762,1.29361 0.16927,1.29361 0.281,0 0.87166,-0.89774 0.88065,-1.33849 0.005,-0.22685 0.17626,-0.64199 0.3814,-0.92253 0.366,-0.50054 0.38332,-0.50072 0.92604,-0.01 0.30418,0.27529 0.55306,0.59271 0.55306,0.70539 0,0.11267 -0.45434,0.89789 -1.00964,1.74493 -0.55531,0.84703 -1.16506,1.92701 -1.35502,2.39996 -0.36323,0.90435 -0.75814,1.07084 -1.28659,0.54239 z m -28.5878,-0.18127 c -0.70453,-0.44648 -0.22062,-1.20421 0.88367,-1.3837 1.28648,-0.20911 1.72205,-0.0628 1.72205,0.57855 0,0.84726 -1.70699,1.3747 -2.60572,0.80515 z m 5.00228,-0.53096 c -0.3922,-0.73283 0.0144,-1 1.75616,-1.15389 1.92249,-0.16986 2.80045,0.22834 2.30104,1.04365 -0.42258,0.68986 -3.69935,0.7789 -4.0572,0.11024 z m -9.47417,-0.99758 c -0.1819,-0.0734 -0.32289,-0.33189 -0.31332,-0.57442 0.0319,-0.80774 2.51164,-5.4638 2.95546,-5.54927 0.23832,-0.0459 0.62718,0.21242 0.86412,0.57405 0.41711,0.63659 0.38669,0.73806 -0.95648,3.19118 -1.33423,2.43677 -1.64449,2.72375 -2.54978,2.35846 z m -114.49843092,-0.8831 c -0.24429101,-0.39528 0.0956137,-0.79375 0.67707324,-0.79375 0.33716285,0 0.51355174,0.18175 0.51355174,0.52916 0,0.5612 -0.88566922,0.75801 -1.19062498,0.26459 z m 25.85608692,-0.0466 c -0.462366,-0.46236 0.134791,-1.13508 0.63735,-0.71799 0.198974,0.16513 0.361771,0.46426 0.361771,0.66472 0,0.44606 -0.575642,0.47675 -0.999121,0.0533 z m 93.007974,-6.58915 c -0.70555,-0.41095 -0.5609,-1.26857 0.52917,-3.13742 0.71141,-1.21967 1.19498,-1.75487 1.70882,-1.89123 1.00976,-0.26799 1.52609,0.36266 0.99036,1.20963 -0.21125,0.33396 -0.85592,1.39416 -1.43262,2.356 -0.5767,0.96184 -1.11248,1.74517 -1.19063,1.74075 -0.0781,-0.004 -0.35044,-0.1294 -0.6051,-0.27773 z m -4.19264,-2.41772 c -0.78636,-0.62313 -1.65772,-1.25859 -1.93634,-1.41214 -0.27862,-0.15354 -0.67091,-0.52666 -0.87175,-0.82914 -0.31723,-0.47778 -0.30606,-0.60908 0.0851,-1.00028 0.37828,-0.37828 0.74659,-0.42055 2.30276,-0.26427 l 1.85245,0.18604 -1.10028,-1.30487 c -0.60515,-0.71767 -1.10028,-1.50556 -1.10028,-1.75085 0,-0.75476 0.9537,-0.50274 1.81659,0.48005 0.91089,1.03744 1.25903,1.19994 0.82224,0.38379 -0.82731,-1.54585 0.457,-2.81367 2.18828,-2.16019 0.5549,0.20946 0.92827,0.2279 1.10174,0.0544 0.14432,-0.14432 0.47671,-0.2624 0.73865,-0.2624 0.69948,0 0.64121,1.2349 -0.0689,1.46029 -0.44081,0.1399 -0.51352,0.31704 -0.37989,0.92547 0.1866,0.84959 -0.37206,1.31841 -1.5711,1.31841 -0.68271,0 -0.90646,0.35726 -0.41427,0.66146 0.40585,0.25082 0.31417,1.13658 -0.1442,1.3931 -0.22483,0.12582 -1.0285,0.1467 -1.78594,0.0464 -0.75743,-0.10031 -1.42723,-0.13733 -1.48843,-0.0823 -0.18665,0.16785 1.08791,1.40131 1.62372,1.57137 0.35611,0.11302 0.47893,0.35916 0.42118,0.84404 -0.12306,1.03311 -0.52402,0.98357 -2.09136,-0.25841 z m 3.78694,-6.34085 c -0.40415,-0.40415 -0.70237,-0.10593 -0.47821,0.47822 0.13235,0.3449 0.2471,0.37908 0.48248,0.1437 0.23538,-0.23538 0.23436,-0.38329 -0.004,-0.62192 z m -18.578155,5.50333 c 0,-0.98714 -0.556734,-1.34479 -1.93095,-1.24044 -0.407179,0.0309 -1.158125,-0.1903 -1.668769,-0.49158 -1.17094,-0.69087 -1.207752,-0.68681 -1.007466,0.11119 0.119906,0.47775 0.04288,0.70601 -0.280058,0.82993 -0.725264,0.27831 -1.18275,-0.46998 -1.367399,-2.2366 -0.131719,-1.26023 -0.354816,-1.88729 -0.928129,-2.60871 -0.922972,-1.16141 -1.085618,-2.99361 -0.265745,-2.99361 0.313943,0 0.658554,0.37604 0.962689,1.05049 0.609512,1.35166 1.187403,1.85853 2.724461,2.38961 1.304201,0.45063 1.888259,1.3224 0.885965,1.3224 -0.293124,0 -0.600645,0.10953 -0.68338,0.2434 -0.182271,0.29492 1.044827,1.30071 1.826161,1.49682 0.723006,0.18146 2.034372,-0.31318 1.977905,-0.74606 -0.100752,-0.77238 0.05751,-0.99416 0.70944,-0.99416 0.60403,0 0.66943,0.0825 0.52413,0.66146 -0.13338,0.5314 -0.0674,0.66146 0.33579,0.66146 0.61139,0 1.20889,0.66126 0.96056,1.06306 -0.0994,0.16087 -0.45584,0.39707 -0.79202,0.52489 -0.37972,0.14437 -0.67861,0.53907 -0.78907,1.04202 -0.12308,0.56033 -0.33428,0.80961 -0.685971,0.80961 -0.40101,0 -0.508144,-0.18873 -0.508144,-0.89518 z m 4.380625,-1.28036 c -0.56905,-0.81244 -0.52683,-1.03998 0.38188,-2.05779 0.68221,-0.76413 0.79375,-1.09789 0.79375,-2.37521 0,-1.37265 -0.0769,-1.56126 -1.00726,-2.46971 -1.1599,-1.13261 -2.22362,-1.50508 -4.298241,-1.50508 -1.621335,0 -2.49022,-0.43046 -2.231226,-1.10539 0.344175,-0.8969 3.367147,-1.02191 5.462157,-0.22587 1.31594,0.50002 3.1329,1.94446 3.1329,2.49059 0,0.14397 0.23084,0.50757 0.51298,0.80799 0.80614,0.85837 0.80103,3.19161 -0.01,4.41862 -0.34958,0.5291 -0.83842,1.33277 -1.08632,1.78594 -0.53122,0.97113 -1.08096,1.04969 -1.65095,0.23591 z m 17.73726,-1.82765 c -0.15653,-0.97892 -0.061,-1.26735 0.91676,-2.76809 1.16076,-1.7816 1.75187,-2.16531 2.61994,-1.70073 0.73,0.39068 0.68429,0.65858 -0.3319,1.94519 -0.47908,0.60658 -1.03949,1.46005 -1.24536,1.89661 -0.93191,1.97625 -1.70417,2.22337 -1.95944,0.62702 z M 3.0851642,149.62653 c -0.2157214,-0.21572 -0.3294019,-0.63244 -0.2526234,-0.92604 0.092982,-0.35556 0.010459,-0.53382 -0.2471293,-0.53382 -0.3488686,0 -1.2624908,-0.78862 -1.2624908,-1.08976 0,-0.21597 2.0091005,-2.34983 2.2124444,-2.34983 0.1079829,0 0.3184014,0.35017 0.4675966,0.77815 0.1951264,0.55974 0.4697477,0.8011 0.978424,0.8599 0.5561157,0.0643 0.7071599,0.22303 0.7071599,0.7432 0,0.52491 -0.1502073,0.67875 -0.7276041,0.74518 -0.7593732,0.0874 -0.9397952,0.5243 -0.4278888,1.03621 0.4206702,0.42067 0.083692,1.12903 -0.537096,1.12903 -0.2852145,0 -0.6950711,-0.1765 -0.9107925,-0.39222 z m 64.3078698,0.0615 c -0.0659,-0.1819 0.05768,-0.53465 0.274624,-0.78389 0.216942,-0.24924 0.333937,-0.61084 0.25999,-0.80354 -0.107906,-0.2812 -0.618921,-0.30094 -2.588441,-0.1 -2.38789,0.24363 -2.467283,0.23396 -2.947387,-0.35895 -0.43528,-0.53754 -0.449345,-0.67495 -0.119413,-1.16662 0.329877,-0.49159 0.626709,-0.55618 2.516967,-0.54769 1.315184,0.006 2.267026,0.13365 2.464098,0.33072 0.374733,0.37474 2.067364,0.43672 2.067364,0.0757 0,-0.13497 -0.374876,-0.53879 -0.833059,-0.89737 -0.553766,-0.43339 -0.778311,-0.79464 -0.669762,-1.07751 0.267572,-0.69728 1.455643,-0.50981 2.24534,0.35431 0.391979,0.42891 1.174202,0.97257 1.738274,1.20813 1.009868,0.42171 1.036603,0.41772 1.744636,-0.26062 0.395479,-0.37889 1.142831,-0.75767 1.660783,-0.84172 0.770136,-0.12497 0.994556,-0.0541 1.231645,0.38889 0.159453,0.29794 0.528166,0.61733 0.819362,0.70975 0.724609,0.22998 0.724818,1.45375 2.81e-4,1.64322 -0.291042,0.0761 -0.529167,0.34804 -0.529167,0.60429 0,0.25625 -0.183115,0.61788 -0.406922,0.80363 -0.343389,0.28498 -0.54518,0.18677 -1.292455,-0.62906 -0.874643,-0.95489 -2.035691,-1.29436 -2.401665,-0.7022 -0.08994,0.14552 -0.469863,0.26458 -0.84428,0.26458 -0.818188,0 -2.364588,0.90922 -2.74025,1.61115 -0.30259,0.5654 -1.464481,0.68844 -1.650563,0.17479 z m -84.127925,-0.11347 c -0.279769,-0.0748 -0.463021,-0.37788 -0.463021,-0.76582 0,-0.35314 -0.0893,-0.65117 -0.198438,-0.66231 -1.26037,-0.12857 -1.804066,-0.52905 -1.56479,-1.15259 0.09575,-0.24951 0.47656,-0.41466 0.956133,-0.41466 0.65443,0 0.825535,-0.13017 0.956444,-0.72761 0.332935,-1.51943 0.382029,-1.56683 0.928641,-0.89673 0.28023,0.34355 0.50951,0.84221 0.50951,1.10815 0,0.35749 0.179942,0.47054 0.690367,0.43371 0.829318,-0.0598 1.454335,0.68944 0.974969,1.16881 -0.168929,0.16893 -0.582972,0.32103 -0.920095,0.33801 -0.495146,0.0249 -0.6148,0.18308 -0.622577,0.82285 -0.0098,0.80477 -0.325918,0.99442 -1.247143,0.74819 z m 37.965849,-0.12651 c -0.180879,-0.18088 -0.328871,-0.66225 -0.328871,-1.06971 0,-0.56825 -0.125201,-0.74083 -0.537471,-0.74083 -0.607031,0 -0.939288,-0.59536 -0.6203,-1.11149 0.11662,-0.1887 0.216468,-0.58135 0.221883,-0.87257 0.0065,-0.34981 0.18941,-0.52948 0.539013,-0.52948 0.291042,0 0.643886,-0.26136 0.784099,-0.58081 0.140214,-0.31944 0.499182,-0.64211 0.797709,-0.71704 0.298527,-0.0749 1.195838,-0.73089 1.994025,-1.4577 l 1.45125,-1.32147 -0.986088,-0.012 c -0.754893,-0.009 -1.088744,-0.16868 -1.423934,-0.68025 -0.411133,-0.62747 -0.407853,-0.70414 0.05376,-1.25677 0.834793,-0.99939 1.238928,-1.24999 2.015786,-1.24999 0.601826,0 0.900612,0.23905 1.520523,1.21655 0.852067,1.34357 0.783466,2.03966 -0.316768,3.21418 -0.679674,0.72556 -0.47773,0.97294 0.803632,0.98444 0.805799,0.007 0.99366,0.11242 1.062247,0.59475 0.117188,0.82412 -1.094657,1.1141 -2.142553,0.5127 -0.730911,-0.41949 -0.80295,-0.41339 -1.570362,0.13306 -0.643907,0.4585 -0.899945,0.51299 -1.283863,0.27323 -0.788204,-0.49224 -0.935936,0.56872 -0.219324,1.57511 0.531185,0.74598 0.548692,0.86206 0.171588,1.13781 -0.262327,0.19181 -0.403157,0.64957 -0.375212,1.2196 0.0388,0.79137 -0.04333,0.92282 -0.61858,0.99004 -0.364824,0.0426 -0.811308,-0.0705 -0.992187,-0.25135 z m 17.490806,-0.75226 c -0.210191,-1.05095 -1.237731,-1.79978 -1.81371,-1.32176 -0.217553,0.18055 -0.395551,0.25142 -0.395551,0.15749 0,-0.0939 -0.26789,0.004 -0.595312,0.21708 -0.766097,0.49915 -8.500194,1.05412 -9.232026,0.66246 -0.502848,-0.26912 -0.63598,-0.94228 -0.288922,-1.4609 0.335243,-0.50095 8.597801,-1.11554 9.152577,-0.68079 0.166224,0.13026 0.626475,0.31426 1.022781,0.40889 0.548756,0.13102 0.687219,0.0852 0.580737,-0.19232 -0.07875,-0.20521 0.233006,-0.67807 0.71372,-1.08257 0.713806,-0.60062 1.008569,-0.68925 1.800513,-0.54135 0.520836,0.0973 0.947376,0.196 0.947868,0.2194 4.92e-4,0.0234 0.282389,0.44363 0.626439,0.93383 l 0.625545,0.89129 -0.677334,0.56392 c -0.372534,0.31016 -0.713963,0.86158 -0.758731,1.22538 -0.06159,0.50055 -0.259146,0.6819 -0.812042,0.74548 -0.632879,0.0728 -0.752845,-0.027 -0.896552,-0.74553 z m 18.428239,5e-5 c -0.291042,-0.29104 -0.529167,-0.69318 -0.529167,-0.89364 0,-0.20046 -0.178594,-0.5127 -0.396875,-0.69386 -0.527973,-0.43817 -0.503844,-1.44273 0.04791,-1.99448 0.676144,-0.67615 2.669402,-0.37844 3.436399,0.51325 0.325243,0.37812 0.828161,0.68748 1.117595,0.68748 0.289433,0 0.599827,0.11907 0.689764,0.26459 0.09296,0.15042 -0.132647,0.26458 -0.522861,0.26458 -0.907672,0 -1.990681,0.73121 -1.990681,1.34404 0,0.26918 -0.230298,0.61268 -0.511772,0.76332 -0.682715,0.36538 -0.728351,0.35669 -1.340312,-0.25528 z m 36.573138,-0.0452 c -0.178872,-0.17887 -0.325222,-0.47581 -0.325222,-0.65987 0,-0.18406 -0.238125,-0.46209 -0.529167,-0.61785 -0.755481,-0.40432 -0.657373,-0.95255 0.357457,-1.99749 0.815409,-0.8396 1.75921,-1.21372 1.75921,-0.69735 0,0.11857 0.416718,0.4143 0.926041,0.65718 0.509323,0.24288 0.926042,0.53609 0.926042,0.65159 0,0.48273 -0.860506,1.38607 -1.320345,1.38607 -0.344611,0 -0.522212,0.22199 -0.58031,0.72534 -0.09131,0.79113 -0.698577,1.06751 -1.213706,0.55238 z m -104.513022,-0.36727 c -0.322959,-0.22621 -0.587198,-0.56855 -0.587198,-0.76077 0,-0.79648 0.777575,-0.99866 3.764531,-0.97885 1.6402891,0.0109 3.4201997,-0.0813 3.9553568,-0.20479 1.2493898,-0.28837 2.1738375,0.14442 2.2820532,1.06837 0.06387,0.54532 -0.080086,0.74994 -0.7116347,1.01154 -0.4354355,0.18036 -0.923891,0.24624 -1.0854566,0.14638 -0.3518949,-0.21748 -5.882189,-0.23504 -6.5571457,-0.0208 -0.2603198,0.0826 -0.737548,-0.0349 -1.060506,-0.26107 z m 20.1164474,0.13986 c -0.7328699,-0.29485 -0.8265564,-1.47944 -0.1322917,-1.67272 0.2546615,-0.0709 2.2731323,-0.10832 4.4854913,-0.0832 4.254225,0.0484 5.121772,0.27369 4.283043,1.11242 -0.308708,0.3087 -1.204119,0.42434 -3.825119,0.49398 -1.882134,0.05 -3.600655,0.15799 -3.818936,0.23997 -0.218281,0.082 -0.6647658,0.0413 -0.9921876,-0.0905 z m 35.0857386,-0.29426 c -0.270308,-0.27031 -0.491469,-0.66542 -0.491469,-0.87804 0,-0.67271 1.10896,-1.4638 2.100411,-1.49834 1.914404,-0.0667 3.861627,0.093 4.165737,0.34153 0.208636,0.17054 0.531113,0.11297 0.967014,-0.17264 0.606772,-0.39758 0.725722,-0.39408 1.647456,0.0484 1.435049,0.68896 1.732956,1.30277 0.9458,1.94874 -0.474595,0.38947 -1.046552,0.51528 -2.38125,0.52377 -0.966144,0.006 -2.815387,0.0487 -4.109428,0.0946 -2.009769,0.0713 -2.424458,0.0118 -2.844271,-0.40806 z m 80.912005,0.39048 c -0.38324,-0.38324 -0.13311,-1.27151 0.79589,-2.82644 0.53475,-0.89506 1.13281,-1.89527 1.32901,-2.2227 0.43173,-0.72045 1.16553,-0.76695 1.75874,-0.11145 0.62139,0.68662 0.55669,0.97062 -0.4834,2.12187 -0.50671,0.56087 -0.85838,1.08266 -0.78149,1.15955 0.0769,0.0769 -0.26673,0.57084 -0.7636,1.09768 -0.86046,0.91235 -1.46826,1.16838 -1.85515,0.78149 z m -3.90127,-0.51002 c -0.29831,-0.35945 -0.25933,-0.49028 0.26361,-0.88474 0.53278,-0.40188 0.57165,-0.54145 0.29481,-1.05872 l -0.31887,-0.59582 -0.5166,0.55451 c -0.71808,0.77077 -0.95701,0.7006 -1.42455,-0.41838 -0.31176,-0.74615 -0.47908,-0.9003 -0.71793,-0.66146 -0.4494,0.44941 -1.44451,0.3828 -1.63335,-0.10932 -0.32742,-0.85324 1.22216,-2.48967 2.35754,-2.48967 0.16232,0 0.4898,0.40824 0.72773,0.90719 0.31453,0.65958 0.6325,0.93039 1.16494,0.99219 0.91425,0.10611 1.95503,1.53781 1.74602,2.40181 -0.14729,0.60887 -1.07428,1.78423 -1.4072,1.78423 -0.10233,0 -0.3436,-0.18982 -0.53615,-0.42182 z m -40.800368,-0.0582 c -0.751942,-0.14572 -0.829004,-1.08803 -0.148242,-1.81267 0.519124,-0.55258 0.771155,-0.63132 1.546329,-0.48309 1.085766,0.20762 4.089473,0.43133 5.90437,0.43974 1.089653,0.005 1.316499,0.099 1.567093,0.64899 0.178728,0.39226 0.197774,0.73586 0.04883,0.88097 -0.229096,0.22319 -7.985869,0.50679 -8.918382,0.32606 z M 9.2783472,144.61639 c -0.4359376,-0.52527 -0.2853392,-3.19149 0.2702243,-4.7841 0.5887745,-1.68781 1.3723815,-1.93071 1.9821825,-0.61443 1.088097,2.3487 1.24588,2.41454 1.575513,0.65744 0.104346,-0.55621 0.357715,-1.07576 0.563041,-1.15455 0.78126,-0.2998 1.889866,1.4464 1.192069,1.87766 -0.120932,0.0747 -0.378154,0.97474 -0.571606,1.99999 -0.431222,2.28539 -0.930779,2.4513 -1.981641,0.65814 -0.829847,-1.41603 -1.294448,-1.40537 -1.413779,0.0324 -0.129769,1.56357 -0.8969889,2.19378 -1.6160038,1.32742 z m 6.0807768,-0.458 c -0.739556,-1.21305 -0.680307,-1.9377 0.236906,-2.89748 0.649992,-0.68015 0.910886,-0.78664 1.571725,-0.64149 0.485493,0.10663 1.000161,0.50026 1.328908,1.01637 0.295099,0.46328 0.709738,1.08046 0.921421,1.3715 0.211683,0.29104 0.423821,0.76729 0.471419,1.05834 0.0714,0.43656 -0.07551,0.53931 -0.839499,0.58716 -0.509323,0.0319 -1.426523,0.13318 -2.038223,0.22506 -1.050525,0.15779 -1.142143,0.11791 -1.652657,-0.71946 z m 2.050002,-0.93039 c 0.0434,-0.29238 -0.09712,-0.67769 -0.312278,-0.85626 -0.554781,-0.46042 -1.156254,0.60614 -0.671328,1.19044 0.416157,0.50144 0.883111,0.34279 0.983606,-0.33418 z m 72.60773,1.16836 c -0.418868,-0.51146 -0.820898,-3.68339 -0.55551,-4.38285 0.127823,-0.3369 0.232406,-0.95334 0.232406,-1.36986 0,-1.02119 1.148691,-1.96593 1.900881,-1.56337 0.34448,0.18436 0.46176,0.42929 0.345621,0.72178 -0.231836,0.58389 -0.487353,3.31774 -0.446575,4.77806 0.0499,1.78704 -0.722642,2.73713 -1.476823,1.81624 z m 39.745694,-2.69705 c -0.57077,-0.42445 -0.6227,-0.28625 1.07391,-2.85797 0.43656,-0.66174 0.91572,-1.4079 1.06479,-1.65813 0.17584,-0.29516 0.63744,-0.46743 1.31409,-0.49044 1.39741,-0.0475 1.49824,0.54975 0.33991,2.01338 -0.49018,0.61938 -1.22933,1.63216 -1.64256,2.25062 -0.79405,1.18843 -1.31065,1.36684 -2.15014,0.74254 z m -3.34334,-2.64395 c -0.3922,-0.34535 -1.26553,-1.24994 -1.94074,-2.01019 -1.10024,-1.23881 -1.18578,-1.42416 -0.82414,-1.7858 0.41767,-0.41768 0.5055,-0.38331 2.15243,0.84234 0.21091,0.15696 0.52855,0.0297 0.9316,-0.3734 l 0.61157,-0.61157 -0.77803,-0.69518 c -0.42792,-0.38235 -1.0722,-0.90482 -1.43174,-1.16104 -0.63876,-0.45523 -0.64196,-0.47464 -0.14011,-0.84965 0.83593,-0.62466 1.3758,-0.4498 2.28689,0.74069 0.47332,0.61847 1.27695,1.49091 1.78584,1.93876 0.54937,0.48347 0.84737,0.94029 0.73354,1.12448 -0.24561,0.39741 -1.02363,0.39955 -1.41927,0.004 -0.232,-0.23199 -0.40528,-0.22413 -0.71438,0.0324 -0.57236,0.47502 -0.50767,1.32441 0.15455,2.02931 1.15828,1.23293 -0.10089,1.92594 -1.40801,0.77494 z m -114.512956,0.0115 c 0,-0.25099 0.791998,-0.37749 0.933183,-0.14904 0.08601,0.13916 -0.08877,0.25302 -0.388402,0.25302 -0.299629,0 -0.544781,-0.0468 -0.544781,-0.10398 z m 122.819576,-3.6531 c -0.49589,-0.4959 -0.38698,-0.90556 0.60081,-2.2599 2.00819,-2.75338 1.98861,-2.73476 2.55551,-2.43136 0.28865,0.15448 0.58987,0.45038 0.66937,0.65754 0.16304,0.4249 -2.34046,3.94743 -2.97987,4.1928 -0.52639,0.20199 -0.4751,0.21164 -0.84582,-0.15908 z m -43.873202,-0.33129 c -0.08109,-0.21131 -0.08102,-0.49166 1.49e-4,-0.623 0.08117,-0.13133 -0.146404,-0.51498 -0.505721,-0.85254 -0.743193,-0.69819 -0.799721,-1.01388 -0.30315,-1.69298 0.304682,-0.41667 0.424084,-0.43269 0.919438,-0.12334 0.44922,0.28054 0.637638,0.28717 0.893388,0.0314 0.74896,-0.74896 2.269636,-0.093 1.916679,0.82684 -0.111294,0.29003 0.05468,0.52335 0.524602,0.73746 0.778449,0.35469 0.875963,0.80073 0.282695,1.2931 -0.323049,0.26811 -0.549231,0.27003 -1.120949,0.01 -0.634001,-0.28887 -0.758325,-0.26296 -1.08277,0.22568 -0.421869,0.63537 -1.30753,0.73288 -1.524361,0.16782 z m 38.867162,-0.93506 c -1.27902,-0.57264 -1.66615,-1.16699 -1.46907,-2.25542 0.19879,-1.09789 0.5917,-1.51219 1.27216,-1.3414 0.49801,0.12499 0.63247,-0.0264 0.97401,-1.09651 0.54375,-1.70371 0.95761,-1.90794 2.40324,-1.18596 0.64311,0.32119 1.30508,0.58397 1.47104,0.58397 0.36263,0 0.39866,0.58818 0.0575,0.93928 -0.13432,0.13824 -0.28315,0.60854 -0.33073,1.0451 -0.0721,0.66204 -0.26034,0.85051 -1.13411,1.13581 -1.33903,0.4372 -1.37481,0.48293 -0.84027,1.07359 0.47848,0.52871 0.36566,0.72006 -0.77149,1.30852 -0.41512,0.21482 -0.79886,0.16616 -1.6323,-0.20698 z m 1.65887,-1.7986 c -0.25475,-0.25475 -0.93908,0.20947 -0.93908,0.63703 0,0.40717 0.0464,0.40418 0.53079,-0.0342 0.29194,-0.2642 0.47567,-0.53549 0.40829,-0.60286 z m -1.73283,-0.32172 c 0,-0.14552 -0.11906,-0.26458 -0.26458,-0.26458 -0.14552,0 -0.26458,0.11906 -0.26458,0.26458 0,0.14553 0.11906,0.26459 0.26458,0.26459 0.14552,0 0.26458,-0.11906 0.26458,-0.26459 z m 1.37143,-0.58649 c -0.18986,-0.18985 -0.31309,-0.20547 -0.31309,-0.0397 0,0.35316 0.3129,0.66606 0.48948,0.48948 0.0752,-0.0752 -0.004,-0.27759 -0.17639,-0.44979 z m 1.88246,-0.9035 c 0.26165,-0.26165 -0.31831,-1.15584 -0.74965,-1.15584 -0.45994,0 -0.47817,0.13008 -0.11368,0.81115 0.28087,0.5248 0.56842,0.6396 0.86333,0.34469 z m -39.325412,-0.009 c -0.402279,-0.40228 -0.121602,-1.29118 0.739528,-2.34208 0.985522,-1.2027 0.970532,-1.5354 -0.05755,-1.27736 -0.834402,0.20942 -1.148949,-0.28395 -0.806792,-1.26546 0.220477,-0.63246 0.34166,-0.70931 0.762966,-0.48384 0.375632,0.20103 0.763769,0.13393 1.552411,-0.26841 0.578355,-0.29505 1.287395,-0.53646 1.575646,-0.53646 0.288251,0 0.597677,-0.11906 0.687614,-0.26459 0.234994,-0.38022 1.191848,-0.32677 1.184119,0.0662 -0.01247,0.63413 -1.047218,3.43581 -1.598218,4.32735 -0.564886,0.914 -1.171835,1.16486 -1.372909,0.56744 -0.159929,-0.47517 -0.991117,0.2494 -0.991117,0.86399 0,0.63384 -1.211673,1.07729 -1.675694,0.61327 z m 45.589042,-1.28784 c -0.41545,-0.50058 -0.23704,-0.86564 1.67654,-3.43056 1.44614,-1.93838 2.39107,-2.43381 3.07356,-1.61147 0.27647,0.33314 0.12045,0.6767 -0.93726,2.0639 -1.66075,2.17808 -2.79033,3.38402 -3.16972,3.38402 -0.16844,0 -0.45785,-0.18265 -0.64312,-0.40589 z m -3.8134,-1.31654 c -0.28247,-0.21683 -0.95434,-0.39423 -1.49304,-0.39423 -0.59621,0 -1.03517,-0.14518 -1.12183,-0.37101 -0.19477,-0.50757 0.0427,-0.68733 0.90799,-0.68733 0.77712,0 1.22088,-0.37987 0.76958,-0.65879 -0.35373,-0.21862 -0.34544,-1.11475 0.0124,-1.33588 0.35441,-0.21904 1.236,0.56192 1.46974,1.30196 0.0974,0.30823 0.40482,0.72075 0.68326,0.9167 0.65023,0.45759 0.52949,1.47353 -0.1853,1.5593 -0.29104,0.0349 -0.76028,-0.1139 -1.04276,-0.33072 z m 2.8239,-2.02478 c 0.077,-1.19499 0.20697,-1.09916 -2.24416,-1.65432 -1.06976,-0.24229 -1.01683,-1.21305 0.0661,-1.21305 0.43657,0 0.79375,-0.11906 0.79375,-0.26458 0,-0.14552 -0.11906,-0.26459 -0.26458,-0.26459 -0.40821,0 -0.31286,-0.95347 0.13229,-1.32291 0.30468,-0.25286 0.48374,-0.25729 0.77076,-0.0191 0.50827,0.42182 2.23405,3.34783 2.42625,4.11362 0.22248,0.88641 -0.31,1.72629 -1.09445,1.72629 -0.60569,0 -0.65141,-0.0859 -0.586,-1.10138 z m -38.09897,-3.24507 c -0.17882,-0.28934 -0.124354,-1.87986 0.0882,-2.57442 0.17448,-0.57027 0.88502,-0.83574 1.30467,-0.48746 0.18139,0.15054 0.50814,0.20528 0.7261,0.12164 0.7465,-0.28646 1.67227,1.17876 1.00525,1.59101 -0.13917,0.086 -0.18377,0.33688 -0.0991,0.55749 0.0873,0.22748 -0.0609,0.5594 -0.34228,0.76678 -0.55857,0.41161 -2.43304,0.42905 -2.68279,0.025 z m 45.35467,-1.42907 c -0.69218,-0.76485 -0.53261,-1.20188 0.95118,-2.60519 0.76398,-0.72254 1.44859,-1.42289 1.52135,-1.55632 0.0743,-0.13625 -0.73755,-0.25451 -1.85208,-0.26977 -1.76664,-0.0242 -2.0494,0.0419 -2.57701,0.60264 -0.48514,0.51558 -0.6891,0.57819 -1.12448,0.34518 -0.29251,-0.15655 -0.53184,-0.45904 -0.53184,-0.6722 0,-0.21316 -0.11906,-0.38757 -0.26459,-0.38757 -0.32772,0 -1.32291,-0.97304 -1.32291,-1.29347 0,-0.12933 0.40475,-0.31107 0.89945,-0.40388 0.4947,-0.0928 1.04506,-0.34418 1.22303,-0.55861 0.48163,-0.58034 1.03414,-0.47266 1.31098,0.2555 0.39573,1.04083 1.08709,1.25552 3.03903,0.94369 0.9472,-0.15131 2.05127,-0.2777 2.45349,-0.28085 3.79208,-0.0298 4.37968,-0.20241 4.66422,-1.37055 0.16943,-0.69557 0.15007,-0.71184 -0.49642,-0.41728 -1.35967,0.61951 -1.57324,-0.83581 -0.31774,-2.16524 0.61312,-0.64922 0.61475,-0.66501 0.0957,-0.92604 -0.29041,-0.14606 -0.72544,-0.62275 -0.96674,-1.05931 -0.2413,-0.43656 -0.57787,-0.80863 -0.74793,-0.82682 -0.17006,-0.0182 -0.48779,-0.048 -0.70607,-0.0661 -0.64241,-0.0535 -0.45524,-0.77738 0.33073,-1.279 1.12154,-0.71579 2.02739,-1.76262 2.57383,-2.97442 0.69158,-1.53364 1.16176,-1.72039 2.33105,-0.92585 0.52471,0.35656 1.24526,0.64828 1.60121,0.64828 0.35595,0 0.71572,0.17859 0.79948,0.39688 0.19729,0.51412 1.19299,0.50988 1.76472,-0.008 0.34346,-0.31084 0.60845,-0.34296 1.14531,-0.13884 0.38415,0.14605 0.69846,0.42857 0.69846,0.62782 0,0.47507 -1.04737,1.68135 -2.01202,2.31729 -1.59895,1.0541 -2.68932,0.32144 -1.6642,-1.11822 0.30742,-0.43173 0.48162,-0.86229 0.3871,-0.95681 -0.28433,-0.28433 -1.59974,0.6556 -1.68531,1.20425 -0.13337,0.85517 -1.19735,1.25189 -2.39506,0.89305 -1.44159,-0.43191 -1.44861,-0.42766 -1.25831,0.76241 0.27996,1.75079 1.24677,2.76672 1.6451,1.72869 0.20763,-0.54107 0.85475,-0.72329 1.44562,-0.40707 0.82709,0.44264 0.58685,1.112 -0.80351,2.2387 -1.36611,1.10705 -1.59978,1.56054 -0.93545,1.81547 0.21828,0.0838 0.39687,0.34082 0.39687,0.57124 0,0.23041 0.35719,0.54345 0.79375,0.69564 0.84324,0.29395 1.0572,0.9342 0.39688,1.18759 -0.21828,0.0838 -0.39688,0.36845 -0.39688,0.63264 0,0.31811 -0.32614,0.58797 -0.9657,0.79905 -0.88578,0.29233 -1.00272,0.26962 -1.4131,-0.27444 -0.38989,-0.51689 -0.59738,-0.56974 -1.61399,-0.41115 -1.91528,0.29879 -2.13016,0.402 -1.95908,0.94102 0.17354,0.54679 -0.18193,1.05554 -2.0623,2.95155 -1.38958,1.40115 -1.741,1.51761 -2.39586,0.79399 z m -39.68441,-1.54462 c -0.3258,-0.3258 -0.19126,-1.94028 0.16169,-1.94028 0.18594,0 0.53917,-0.23486 0.78495,-0.52191 0.24578,-0.28706 0.77826,-0.59466 1.18328,-0.68356 0.40502,-0.0889 0.91499,-0.22776 1.13328,-0.30857 0.67732,-0.25075 1.39194,-0.36164 3.20884,-0.4979 1.40646,-0.10548 1.84095,-0.0442 2.19463,0.30947 0.60736,0.60736 0.40574,0.99203 -0.6617,1.26244 -2.36707,0.59965 -3.93716,1.1401 -5.27094,1.81436 -1.42472,0.72023 -2.38166,0.91832 -2.73403,0.56595 z m 18.07986,-2.70163 c 0,-0.1277 0.1786,-0.3804 0.39688,-0.56156 0.70153,-0.58222 0.44468,-0.84834 -0.64165,-0.66481 -1.22605,0.20714 -2.13648,-0.19002 -2.13648,-0.932 0,-0.56744 0.072,-0.58711 1.91823,-0.52375 1.2383,0.0425 1.52018,-0.15604 0.98351,-0.6927 -0.5073,-0.50731 0.0156,-1.15549 0.93217,-1.15549 0.64628,0 0.90232,0.13556 1.00618,0.5327 0.0766,0.29299 0.55861,0.7079 1.0711,0.92203 0.51249,0.21414 1.01007,0.51598 1.10573,0.67077 0.22177,0.35882 0.92058,-0.1789 0.92058,-0.70836 0,-0.46449 1.1529,-1.00983 1.69504,-0.8018 0.22322,0.0857 0.48866,0.48827 0.58986,0.89468 0.1012,0.40642 0.37264,0.87892 0.6032,1.05001 0.37082,0.27518 0.32952,0.40494 -0.35791,1.12448 -0.86572,0.90616 -1.669,1.0531 -1.91539,0.35038 -0.0893,-0.25466 -0.39989,-0.6547 -0.69021,-0.88898 -0.48838,-0.3941 -0.56468,-0.38915 -1.01998,0.0661 -0.27066,0.27066 -0.71202,0.49211 -0.98079,0.49211 -0.26878,0 -0.76324,0.23813 -1.09882,0.52917 -0.60825,0.52754 -2.38125,0.74866 -2.38125,0.29698 z m -7.73906,-0.21478 c -0.74416,-0.19447 -0.53901,-0.97017 0.57601,-2.17796 1.11905,-1.21215 1.94432,-1.35662 2.08609,-0.3652 0.0512,0.35793 0.30185,0.60757 0.66146,0.65875 0.34605,0.0493 0.6102,0.30007 0.65646,0.62335 0.13903,0.97135 -2.22381,1.72001 -3.98002,1.26106 z m 19.44286,-0.60127 c -1.99387,-0.18347 -2.62015,-0.49074 -2.36348,-1.1596 0.23485,-0.61202 3.26463,-0.67094 5.19135,-0.10096 1.11528,0.32994 1.54534,0.57651 1.44798,0.83021 -0.12949,0.33746 -1.38842,0.73305 -2.05595,0.64604 -0.16371,-0.0213 -1.16267,-0.1184 -2.2199,-0.21569 z m 22.07467,-1.5094 c -0.50143,-0.50144 -0.002,-1.11084 1.73985,-2.12394 1.9081,-1.10965 1.92764,-1.18409 0.39887,-1.51907 -0.51444,-0.11273 -0.72761,-0.32355 -0.72761,-0.71961 0,-0.54034 0.0888,-0.55553 2.50748,-0.42902 2.35463,0.12316 2.53039,0.0962 2.88339,-0.44256 0.20781,-0.31715 0.31533,-0.89066 0.24043,-1.28244 -0.17757,-0.92893 0.5301,-1.23258 1.28353,-0.55074 0.30118,0.27256 0.83002,0.45599 1.18176,0.4099 0.71282,-0.0934 1.12456,0.55292 0.68962,1.08255 -0.14786,0.18005 -0.31001,0.61286 -0.36033,0.9618 -0.13454,0.93285 -0.86454,1.30583 -1.47483,0.75352 -0.27849,-0.25203 -0.71992,-0.38129 -1.02745,-0.30087 -0.63715,0.16662 -1.21254,1.57253 -0.99043,2.42005 0.19969,0.76203 -0.2552,1.30606 -1.28033,1.53122 -0.94581,0.20773 -1.37787,-0.24434 -0.9671,-1.01187 0.36787,-0.68738 0.0668,-0.89775 -0.52213,-0.3648 -0.26702,0.24164 -0.56012,0.43935 -0.65134,0.43935 -0.0912,0 -0.60447,0.29766 -1.14056,0.66146 -0.99106,0.67255 -1.46609,0.8018 -1.78282,0.48507 z m -8.14927,-3.32934 c -0.33032,-0.47294 -0.66827,-0.91943 -0.751,-0.99219 -0.0827,-0.0728 -0.29428,-0.45971 -0.4701,-0.85989 -0.40452,-0.92072 -0.60795,-0.91253 -1.47391,0.0594 -0.78905,0.88557 -1.50294,0.82587 -1.50294,-0.12569 0,-0.3828 0.58305,-1.20087 1.5875,-2.22739 0.87313,-0.89231 1.5875,-1.73841 1.5875,-1.88022 0,-0.37975 1.25813,-0.31425 1.40011,0.0729 0.0667,0.1819 -0.10836,0.71234 -0.38906,1.17874 l -0.51035,0.84802 1.36452,2.00231 c 1.12069,1.64451 1.30657,2.07215 1.04017,2.39313 -0.52361,0.63092 -1.2386,0.45276 -1.88244,-0.46907 z m 19.08538,-4.44307 c 0,-0.29726 0.46005,-1.16321 1.02233,-1.92434 1.06875,-1.44671 2.15267,-3.40023 2.15267,-3.8797 0,-0.16957 -0.27145,-0.21203 -0.68764,-0.10757 -0.57523,0.14437 -0.6723,0.0911 -0.59377,-0.32569 0.0516,-0.27405 0.37203,-0.61734 0.712,-0.762861 0.54363,-0.2327 0.60298,-0.40166 0.4925,-1.402132 -0.15145,-1.371522 -0.25554,-1.49989 -0.92546,-1.14136 -0.40473,0.216608 -0.61292,0.173194 -0.9487,-0.197834 -0.66623,-0.736173 -0.51907,-1.226145 0.60148,-2.002687 l 1.03166,-0.714939 -0.14031,-1.547337 c -0.12759,-1.407052 -0.0783,-1.609362 0.54382,-2.231462 0.37626,-0.376268 0.88138,-0.684124 1.12247,-0.684124 0.44018,0 0.4269,0.534075 -0.0642,2.579688 -0.16761,0.698227 0.28514,0.791589 0.89266,0.184073 0.54495,-0.544949 1.76818,-0.393649 1.88718,0.233423 0.0589,0.310435 -0.36364,0.901763 -1.17988,1.651153 -1.23822,1.13681 -1.2711,1.206583 -1.25019,2.653379 0.0118,0.817227 0.15504,1.568408 0.31827,1.669291 0.43007,0.265799 0.68131,1.776479 0.33141,1.992729 -0.16019,0.099 -0.29126,0.38133 -0.29128,0.6274 -4e-5,0.52426 -2.25527,4.0888 -3.25437,5.14376 -0.83065,0.8771 -1.77268,0.97655 -1.77268,0.18714 z m -10.5378,-3.82745 c -0.43086,-0.36254 -0.90699,-0.65917 -1.05808,-0.65917 -0.39091,0 -0.65151,-0.98187 -0.46151,-1.73889 0.21003,-0.836802 1.02106,-0.837038 1.56921,-4.5e-4 0.23133,0.35304 0.84033,0.79368 1.35335,0.97919 1.15727,0.41847 1.22327,1.12549 0.15658,1.6771 -0.7337,0.37941 -0.81905,0.36531 -1.55955,-0.25778 z m 5.37506,-0.49662 c -0.71895,-0.52571 -0.35095,-1.1163 1.89436,-3.04018 2.10581,-1.804356 3.0038,-2.069562 3.0038,-0.887117 0,0.410968 -0.26162,0.989711 -0.59531,1.316931 -0.63656,0.624206 -3.5734,2.976986 -3.71601,2.976986 -0.047,0 -0.31108,-0.16498 -0.58684,-0.36662 z m -2.7593,-2.844348 c -0.29846,-0.489542 -0.54309,-1.020451 -0.54363,-1.179798 -5.5e-4,-0.159347 -0.24193,-0.507768 -0.53641,-0.774269 -0.41046,-0.371463 -0.60806,-0.411908 -0.84667,-0.173299 -0.4841,0.484102 -1.21037,0.367083 -1.39839,-0.225315 -0.18998,-0.598601 0.62877,-1.45762 1.65793,-1.739462 1.04387,-0.285873 2.22324,0.914994 2.81541,2.866737 0.10602,0.349434 0.32256,0.421725 0.91081,0.304074 0.47012,-0.09402 0.84853,-0.03009 0.96822,0.16358 0.27896,0.45137 -0.63841,1.27858 -1.64012,1.47893 -0.75361,0.15072 -0.90292,0.0731 -1.38715,-0.721178 z m 15.66111,-7.547596 c -0.1819,-0.0734 -0.33073,-0.455304 -0.33073,-0.848677 0,-0.552618 0.30861,-0.945623 1.35741,-1.728629 1.50364,-1.122569 2.75392,-1.3642 3.23259,-0.624735 0.24584,0.379773 0.13774,0.613889 -0.62502,1.353662 -1.00036,0.970207 -2.6148,2.033629 -3.03894,2.00173 -0.14552,-0.01094 -0.41341,-0.07995 -0.59531,-0.153351 z m 4.68731,-3.483057 c -0.77351,-0.626346 -0.53468,-1.365129 0.74702,-2.310833 0.54,-0.398437 1.13299,-0.911233 1.31777,-1.139547 0.18478,-0.228313 0.75992,-0.429838 1.2781,-0.447832 0.73376,-0.02548 1.03805,0.113681 1.37585,0.62923 0.40601,0.619651 0.40314,0.680373 -0.045,0.950336 -0.26331,0.158614 -1.09316,0.744092 -1.84411,1.301061 -2.04534,1.517012 -2.16132,1.558723 -2.8296,1.017585 z M 171.81705,88.4373 c -0.08,-0.254662 -0.25489,-0.736514 -0.38857,-1.070783 -0.44368,-1.109392 -0.30508,-1.641196 0.4277,-1.641196 0.36893,0 0.95083,-0.1835 1.29312,-0.407778 0.56492,-0.370152 0.66312,-0.367004 1.06424,0.03411 0.24304,0.243041 0.38259,0.59643 0.31011,0.785308 -0.0725,0.188879 0.0397,0.485762 0.24937,0.65974 0.62426,0.518093 0.43559,1.047623 -0.43534,1.221809 -0.44907,0.08981 -0.87853,0.324962 -0.95435,0.522552 -0.20211,0.52668 -1.39295,0.447786 -1.56628,-0.103767 z m 14.55337,-3.922115 c -0.23073,-0.919303 0.26707,-1.917759 1.1173,-2.241016 2.05724,-0.782163 4.58994,-2.186436 4.72802,-2.621489 0.0861,-0.271182 0.33055,-0.559851 0.54329,-0.641488 0.6634,-0.254569 0.42361,-0.694205 -0.37864,-0.694205 -1.06114,0 -1.2962,-0.725162 -0.35398,-1.09201 0.82586,-0.321546 5.07343,-0.07668 5.47182,0.315441 0.42158,0.414954 0.67469,0.278595 0.67469,-0.363486 0,-0.875308 0.5086,-1.400129 1.71979,-1.774618 0.58208,-0.179975 1.23693,-0.481493 1.45521,-0.670038 0.78108,-0.674677 1.76711,-0.733597 2.3597,-0.141004 0.47274,0.472745 0.50503,0.633259 0.22136,1.100457 -0.38512,0.634301 -4.32324,2.625258 -5.19277,2.625258 -0.66488,0 -1.86516,1.220138 -1.87785,1.90892 -0.005,0.249542 -0.24984,0.582951 -0.54499,0.740909 -0.29515,0.157959 -0.7248,0.75746 -0.95477,1.332226 -0.37186,0.929362 -0.51746,1.045029 -1.31545,1.045029 -1.00275,0 -1.07851,-0.205047 -0.49365,-1.336056 0.36541,-0.706617 0.36374,-0.780611 -0.0177,-0.780611 -0.23173,0 -0.81157,0.297656 -1.28854,0.661458 -0.47697,0.363802 -0.94631,0.661459 -1.04297,0.661459 -0.0967,0 -0.66884,0.357187 -1.2715,0.79375 -0.60265,0.436562 -1.23801,0.79375 -1.41191,0.79375 -0.17389,0 -0.53167,0.238125 -0.79506,0.529166 -0.65175,0.720177 -1.14655,0.664599 -1.35145,-0.151802 z m -12.0982,0.239997 c -0.35909,-0.359091 -0.14738,-0.86314 1.04003,-2.476112 1.16953,-1.5887 1.18999,-1.64733 0.53084,-1.521327 -0.96138,0.18378 -1.523,-0.50511 -0.8268,-1.014179 0.27698,-0.202534 0.65987,-0.368243 0.85086,-0.368243 0.191,0 0.79156,-0.238125 1.33458,-0.529167 0.54302,-0.291042 1.20127,-0.529167 1.46277,-0.529167 0.59479,0 0.99139,1.001162 0.70151,1.770848 -0.12019,0.319123 -0.15593,0.854904 -0.0794,1.190625 0.27863,1.222813 0.23201,1.404066 -0.38357,1.491385 -0.3657,0.05187 -0.77127,-0.109631 -0.9963,-0.396747 -0.36366,-0.46399 -0.39871,-0.45856 -0.83843,0.129875 -1.65677,2.217114 -2.30722,2.741047 -2.79606,2.252209 z m 5.38917,-7.479134 c -0.37968,-0.709444 -0.34347,-2.133023 0.0568,-2.234542 0.1819,-0.04613 0.74745,-0.230986 1.25677,-0.41079 1.41848,-0.50076 1.71147,-0.47144 1.80421,0.180542 0.0466,0.327422 -0.0427,0.595313 -0.19831,0.595313 -0.45137,0 -0.32731,0.8348 0.18004,1.211431 0.44073,0.327183 0.44053,0.366542 -0.004,0.817746 -0.40046,0.406225 -0.54683,0.424351 -1.02338,0.12674 -0.39885,-0.249086 -0.63704,-0.266326 -0.84239,-0.06097 -0.43411,0.434109 -0.92465,0.344154 -1.2295,-0.225466 z M 205.88075,74.6344 c -0.14165,-0.08754 -0.33417,-0.46447 -0.42782,-0.837613 -0.18864,-0.751594 0.2217,-1.247091 1.18665,-1.432925 0.32074,-0.06177 0.71984,-0.219111 0.88689,-0.349651 0.16706,-0.130541 0.67339,-0.307194 1.12518,-0.392564 0.93292,-0.176281 2.03493,0.427122 1.90509,1.043122 -0.093,0.441281 -4.28908,2.208755 -4.67599,1.969631 z m -47.97398,136.34414 c 2.62396,-0.15241 2.73856,-0.1846 2.98736,-0.83898 0.14229,-0.37427 0.19455,-0.84771 0.11612,-1.05209 -0.0784,-0.20438 -0.15553,-2.97783 -0.17134,-6.16322 -0.0255,-5.13115 -0.0783,-5.80557 -0.46351,-5.91398 -0.84925,-0.239 -34.10732,-0.24458 -35.27639,-0.006 -0.998,0.20374 -1.098,0.88059 -1.10014,7.44691 -0.002,4.89251 0.0555,5.67995 0.44309,6.10822 0.42113,0.46534 1.1112,0.49266 12.89829,0.51061 6.84935,0.0104 12.49394,0.0597 12.54352,0.10949 0.11429,0.11474 4.46187,0.006 8.023,-0.20105 z m -28.44557,-1.4672 c -0.47589,-0.5783 -1.20138,-3.39148 -1.17749,-4.56585 0.0121,-0.59604 -0.1658,-1.65995 -0.3954,-2.36424 -0.32046,-0.98302 -0.34493,-1.35185 -0.10531,-1.5875 0.49978,-0.49149 1.44346,0.83284 1.83264,2.57186 0.20352,0.90942 0.46083,1.47554 0.64304,1.41481 0.16707,-0.0557 0.49709,-0.86595 0.73338,-1.80057 0.33972,-1.34376 0.54443,-1.7165 0.97835,-1.78144 0.45668,-0.0683 0.62653,0.16469 1.01248,1.38907 0.25506,0.80915 0.54618,1.47118 0.64694,1.47118 0.20695,0 0.51392,-1.34619 0.51392,-2.25373 0,-0.5442 0.44203,-0.92127 1.07997,-0.92127 0.31246,0 0.31704,2.96021 0.006,3.75786 -0.13042,0.33427 -0.38564,1.4412 -0.56714,2.45984 -0.42169,2.36665 -0.4821,2.51355 -1.03364,2.51355 -0.61015,0 -1.0506,-1.03574 -1.24943,-2.93813 -0.0897,-0.85789 -0.25543,-1.55979 -0.36836,-1.55979 -0.11292,0 -0.46218,0.77186 -0.77612,1.71525 -0.70038,2.10467 -1.34282,3.00263 -1.77364,2.4791 z m 7.35301,-0.32822 c -0.22445,-0.27044 -0.2304,-0.69895 -0.0226,-1.62617 0.25451,-1.13569 0.22742,-1.31723 -0.27671,-1.85385 -0.30737,-0.32718 -0.45031,-0.66195 -0.31765,-0.74394 0.44005,-0.27197 3.62551,-3.9e-4 4.19887,0.35797 0.49226,0.30767 0.6563,0.27965 1.29245,-0.22075 0.89023,-0.70025 1.49497,-0.72632 2.07148,-0.0893 0.85984,0.95012 0.2276,2.0381 -1.28191,2.20599 -1.23887,0.13779 -1.00331,0.83155 0.39687,1.16885 0.74632,0.17979 1.22255,0.45131 1.27617,0.72761 0.0694,0.35749 -0.1344,0.44078 -1.07836,0.44078 -1.42155,0 -2.42353,-0.89004 -2.43768,-2.16536 -0.0123,-1.1082 -0.71744,-1.55324 -1.43381,-0.90493 -0.29131,0.26363 -0.61108,0.85003 -0.71059,1.30311 -0.35217,1.60341 -1.03468,2.17334 -1.67652,1.39998 z m 9.84408,-0.29508 c -0.73732,-0.51643 -1.25838,-2.05697 -0.91362,-2.70116 0.68203,-1.2744 2.13089,-1.91695 2.80421,-1.24363 0.56105,0.56105 0.42254,1.28871 -0.25465,1.3378 -0.28844,0.0209 -0.68081,0.0507 -0.87193,0.0661 -0.22872,0.0185 -0.31916,0.32203 -0.26458,0.88802 0.0684,0.70924 0.19879,0.86492 0.74436,0.88858 1.18912,0.0516 1.32292,0.0991 1.32292,0.46962 0,0.70096 -1.70687,0.89688 -2.56671,0.29462 z m 7.83496,-0.0274 c -0.19404,-0.23381 -0.47949,-0.68029 -0.63433,-0.99219 -0.15485,-0.3119 -0.54108,-0.60444 -0.8583,-0.65008 -0.4593,-0.0661 -0.62279,0.0956 -0.80277,0.79375 -0.15732,0.61031 -0.40216,0.90243 -0.80568,0.96128 -0.49008,0.0715 -0.57967,-0.0423 -0.57967,-0.7361 0,-0.45136 0.17859,-1.24809 0.39688,-1.77051 0.21828,-0.52242 0.3986,-1.32226 0.40072,-1.77744 0.002,-0.45517 0.18643,-1.35189 0.40958,-1.99272 0.4683,-1.34481 0.37144,-1.8017 -0.40773,-1.92319 -0.88932,-0.13867 -0.7485,-0.60803 0.21002,-0.70003 1.69052,-0.16227 1.81731,0.2549 1.21085,3.98411 -0.2073,1.27471 0.41707,1.6082 1.35726,0.72493 0.53078,-0.49864 0.70942,-0.54406 1.04487,-0.26566 0.60081,0.49862 0.49609,0.79583 -0.38912,1.10442 -0.46585,0.1624 -0.79375,0.46416 -0.79375,0.73048 0,0.24958 0.35719,0.79599 0.79375,1.21425 0.43657,0.41825 0.79375,0.97631 0.79375,1.24012 0,0.60315 -0.86205,0.63809 -1.34633,0.0546 z M 35.995464,169.57526 c 0.162431,-0.30351 0.220441,-0.62672 0.128911,-0.71825 -0.248059,-0.24806 -1.054411,0.33638 -1.152626,0.83541 -0.124194,0.63103 0.672065,0.5399 1.023715,-0.11716 z m -5.986892,0.12664 c 0.44418,-0.17045 0.586416,-0.89773 0.175571,-0.89773 -0.54279,0 -1.079973,0.34309 -1.079973,0.68976 0,0.40014 0.252386,0.45817 0.904402,0.20797 z"
       id="path1" /></g></svg>
