<?xml version="1.0" encoding="utf-8"?>
<svg xmlns="http://www.w3.org/2000/svg" viewBox="0 0 280 161">
  <title>A diagram of three sets of footmarks. Two sets come from the left. One set, labeled “Fordingbridge,” stops in the middle of the diagram, near a large triangular shape labeled “Wreck.” The other set of tracks, labeled “Number 2,” parallels the first set but then continues off to the right. The third set, labeled “Number 3 Light Trail,” comes from the lower right to the end of the Fordingbridge tracks. They then turn back to the right, alongside Number 2, where they are labeled “Number 3 Heavy Trail.”</title>
  <path d="M6.614 160.312c-1.9645-.0878-3.8159-.24427-4.1142-.34772-1.3812-.47908-1.2996 2.232-1.4421-47.911-.07276-25.612-.13229-61.152-.13229-78.978V.66428l17.859-.18962c15.995-.16982 25.338-.24427 27.252-.21717.3638.0052 3.3035-.0501 6.5328-.12277 3.2292-.07267 5.9288-.03901 5.9992.0748.07034.11381 4.3339.17112 9.4745.12735 5.1407-.04377 9.5252-.0622 9.7435-.04095.21828.02125 45.323.05329 100.23.07121 98.501.03213 99.84.03943 100.21.54616.32252.44091.37568 11.585.37568 78.747 0 83.234.0555 79.381-1.157 80.387-.31123.2583-28.376.33711-133.83.37581-73.389.0269-135.04-.0229-137.01-.11065zm123.43-2.3481c1.6007.02 4.8994.0674 7.3304.10533l4.42.0691.20154-.81772c.11085-.44975.20691-.99632.21347-1.2146.007-.21829.20577-.8136.44269-1.3229.23691-.50932.63464-1.7.88383-2.6458.61425-2.3316 2.1865-7.1691 2.5141-7.7355.14617-.25268.26577-.70313.26577-1.001s.29608-1.1258.65795-1.84c.36187-.71413 1.0268-2.2282 1.4777-3.3646.45088-1.1364 1.2264-2.8925 1.7233-3.9024s.90351-1.9881.90351-2.1737.35719-.70288.79375-1.1495.79375-.98648.79375-1.1998c0-.21326.0947-.38775.21041-.38775.11573 0 .6092-.77753 1.0966-1.7278.48741-.95031.98998-1.792 1.1168-1.8704.12684-.0784.16444-.2496.0836-.38046-.0809-.13086.39335-.92631 1.0538-1.7677.66049-.84135 1.2035-1.6488 1.2067-1.7943.003-.14552.44976-.57928.99235-.9639.58861-.41724 1.2861-1.2936 1.7291-2.1727.80505-1.5973 1.981-3.0811 2.4418-3.0811.35414 0 1.5356-1.2411 1.9519-2.0505.16842-.32742.5217-.59531.78507-.59531s.70538-.25031.98225-.55625c.27688-.30594.86088-.73918 1.2978-.96276.43691-.22358 1.454-.896 2.2602-1.4943 1.4649-1.0871 1.9702-1.3618 5.9425-3.2307 2.6662-1.2544 5.0564-1.4415 6.35-.49706.43656.31871 1.0914.66977 1.4552.78015 1.1989.36373 4.8622 2.9529 6.7469 4.7685 1.0186.98133 2.123 1.8874 2.4542 2.0135s.68096.43477.77736.68598c.0964.2512 1.2906 1.5885 2.6538 2.9718 1.3632 1.3832 2.7739 3.0577 3.1349 3.721.36102.66332 1.0515 1.6373 1.5344 2.1645.48292.52714 1.1431 1.3874 1.4671 1.9116s.69386.95318.8219.95318c.12805 0 .36868.50601.53475 1.1245.16607.61846.68233 1.7793 1.1472 2.5797.46491.80036 1.1142 2.2886 1.4429 3.3073.32867 1.0186 1.0536 2.5069 1.6108 3.3073.97467 1.3998 3.7196 6.8255 3.7196 7.3523 0 .1407.17744.40308.39432.58307.23947.19874.33564.56102.2449.92257-.10137.40388-.0115.64826.27951.75993.31317.12017.4174.46906.38618 1.2926-.029.76624.17879 1.5523.64798 2.451.3799.7276.69123 1.6562.69184 2.0637s.19409 1.1139.42997 1.5701c.30694.59357.38805 1.2248.2853 2.2203-.27481 2.6626-1.7686 2.4 13.859 2.4367 11.961.0281 13.737-.0183 13.737-.35892 0-.21518-.10518-.39123-.23374-.39123-.41134 0-.50524-1.3036-.1171-1.6257.53063-.44039 1.6483.21667 1.8353 1.0789.311 1.4343.13797 1.377 3.6052 1.1929 3.706-.19682 3.2134-.19576 17.196-.0367 7.8686.0895 10.577.0412 10.77-.19205.39075-.47082.53497-19.767.6779-90.698.12682-62.942.12079-63.959-.38093-64.228-.32844-.17578-4.7397-.27283-12.401-.27283h-11.891l-1.4889.65845c-2.8884 1.2774-4.1189 1.1797-4.1292-.32772l-.004-.59531-5.7547-.0007c-3.1651-.00038-8.1359-.07632-11.046-.16875l-5.2917-.16806-2.45 2.3127c-1.58 1.4915-2.59 2.259-2.8443 2.1614-.80428-.30863-.36766-1.2038 1.3589-2.7858 1.9207-1.76 1.8792-2.0751-.23504-1.7856-1.1289.15453-17.85.37331-43.058.56338-7.4943.05651-49.38.15996-93.08.22988-62.907.10066-79.537.19583-79.851.45696-.34903.28967-.38774 3.119-.31794 23.239.04371 12.6.15154 22.969.23962 23.041.08808.0728.05159 1.051-.08109 2.1738-.15837 1.3402-.14702 2.3826.03303 3.0347.17913.64876.18431 1.0832.01494 1.2526-.36729.3673-.31962.95766.15007 1.8584.3111.5966.34085.9371.12714 1.4552-.15344.37202-.28082.97405-.28305 1.3378-.0022.3638.0018 2.3879.009 4.4979.03222 9.4715.01227 11.066-.15529 12.409l-.1782 1.4292.84579-.16915c.46518-.093 2.3203-.248 4.1226-.34434 2.8141-.15043 3.3722-.11268 3.9522.26738.37148.2434.67542.6142.67542.82401 0 .78838-1.1295 1.0098-5.2836 1.0358l-4.1091.0257.05837.66147c.08169.9257.30621 6.6138.35508 8.9958.02239 1.0914-.03446 2.5361-.12634 3.2105-.13957 1.0244-.08987 1.2558.30208 1.4064.25802.0991 5.6484.16398 11.979.14409 8.904-.028 45.603.0208 49.212.0655.3638.005 5.0668-.076 10.451-.17886 11.599-.22161 10.125-.2179 12.634-.0317 1.2808.095 2.0505.0537 2.0505-.11012 0-.14424-.30361-.33846-.6747-.4316-.43366-.10884-.64537-.32332-.59261-.60035.1316-.69102 1.1545-.65171 2.4256.0932 1.1441.6705 1.3009.68972 5.3679.6581 2.3042-.0179 4.487-.0299 4.8508-.0267 5.6749.0507 15.078.0879 18.389.0727 9.9106-.0455 13.29-.0666 14.287-.0892 2.6105-.0592 2.7828-.003 4.0631 1.3344.6757.70564 1.4361 1.3564 1.6897 1.4462.39445.13961.44377.42434.34086 1.9678-.0662.9925-.29475 2.2169-.50793 2.721-.48598 1.149-2.388 3.019-3.5764 3.5161l-.90104.37691.7026.46036c.38643.2532.7026.69831.7026.98914 0 .48052-.11414.51166-1.2506.34125-.68781-.10315-1.6951-.41432-2.2384-.6915-.54332-.27719-1.2147-.50397-1.4919-.50397-.62015 0-1.8983-.97093-1.8983-1.442 0-.7494.77684-1.0531 1.9161-.74898 1.3554.3618 1.6449.24892 2.1632-.84339.64972-1.3692 1.9845-1.608 1.4733-.26354-.55256 1.4534 1.3052.3976 2.1238-1.2069.67459-1.3223.68131-2.7478.0161-3.413-.32208-.32208-.45557-.71588-.36285-1.0704.0954-.36472-.0272-.69725-.35037-.95074-.42629-.33435-2.06-.37015-11.477-.25153-26.517.33401-32.419.45717-32.845.68543-.24955.13355-.61893.17943-.82085.10195-.20192-.0775-.70008.1677-1.107.54484-.49058.45465-.97437.65847-1.4357.60484-.86082-.10004-1.0901-.95157-.39839-1.4798.47354-.36164.47216-.37057-.03737-.2405-1.6492.42093-2.1997.51417-2.9766.50408-.47294-.006-.88966-.0254-.92604-.0427-.63432-.30223-19.452-.58942-19.631-.2996-.07838.12681.12457.29838.45098.38126 1.0838.2752 1.2946 1.0018.87224 3.007-.20776.98642-.29594 1.8725-.19596 1.9691.09998.0966.47944.21562.84324.2646.53538.0721.67849-.0371.7508-.57245.18228-1.3496 1.8903-2.4058 3.212-1.9863.29431.0934.53511.36172.53511.59624s.14365.82365.31921 1.3092c.26674.73764.24916 1.0017-.10693 1.6063-.23438.39794-.48953 1.1284-.567 1.6233-.21153 1.3512-.71592 1.7066-2.3407 1.6491-.77053-.0273-1.5552-.20384-1.7437-.39237-.73638-.73638.39342-1.7596 1.9428-1.7596 1.0302 0 .82702-.87164-.2842-1.2194-.72098-.22566-1.0314-.21236-1.3891.0595-.33697.25612-1.0288.30844-2.5773.19487-2.3624-.17325-2.7781-.45124-2.7781-1.8575 0-1.1175.87075-1.7525 2.0734-1.512.78938.15788.83706.12265.83706-.6184 0-.44766-.22587-.99023-.52489-1.2608-.34355-.31092-.47476-.67473-.3798-1.0531l.14509-.57807-26.542.0726c-29.483.0807-33.534.134-34.019.44772-.26563.17184-.33189 6.4027-.32426 30.493l.0096 30.277h.65499c.36025 0 .65499.0893.65499.19843 0 .10914 27.474.16183 61.053.1171 33.579-.0447 62.362-.065 63.963-.0451zm110.1-4.3381c-.8058-1.375-.87295-1.9661-.25051-2.2049.31303-.12013.747.17032 1.4674.98206 1.1879 1.3386 1.2518 2.2031.17222 2.3283-.578.067-.81027-.11782-1.3891-1.1054zm-6.4971-4.6286c-.15479-.28922-.205-.72503-.11158-.96847.0934-.24343.0135-1.4724-.17753-2.7311-.29797-1.963-.47279-2.4298-1.2291-3.2815-.96744-1.0894-1.0808-1.5552-.49647-2.0401.5139-.42649.69318-.28506 2.1448 1.692.9474 1.2903 1.5014 1.7842 2.3328 2.0797.59963.21313 1.5665.55579 2.1486.76147.74716.26401 1.0583.52632 1.0583.89214 0 .40427-.17447.5133-.79375.49602-.43656-.0122-1.0021-.11422-1.2568-.22675-.7638-.3375-.5556.44843.47707 1.8009.98822 1.2942.99783 1.7565.0365 1.7535-.55305-.002-1.4997-1.079-1.9164-2.181-.35836-.94756-.69438-.43393-.60582.92604.087 1.3365.0636 1.3922-.61936 1.4711-.49307.057-.79574-.0786-.99124-.44385zm-4.6441-10.804c-.25863-.40748-.76796-1.0612-1.1318-1.4527-.67904-.73059-.66413-1.5372.0284-1.5372.5413 0 2.8587 2.6371 2.7622 3.1433-.14304.75112-1.1434.65855-1.6588-.1535zm3.0558-1.377c-1.0344-1.4527-.50125-2.3232 2.0478-3.3431 1.2319-.4929 1.241-.51117.72483-1.4439-.25706-.46447-.28394-.75913-.0905-.99219.41685-.50227.79614-.3939 1.6435.4696.42444.43252.87092.7864.99219.7864.44483 0 .20348.98205-.37483 1.5252-.32742.3075-1.2782.82037-2.1128 1.1397-1.3666.52286-1.5018.64327-1.3595 1.2103.15105.60184-.25682 1.4165-.70919 1.4165-.1178 0-.46041-.3458-.76136-.76845zm-7.4686-3.9254c-1.2026-1.2435-1.39-1.9211-.53105-1.9203.59681.00059 2.4793 2.0382 2.3758 2.5716-.15184.78277-.61653.61871-1.8448-.65132zm4.8636.0486c-.83917-.58778-.72577-1.2116.35394-1.947.51609-.3515 1.0552-.85752 1.1981-1.1245.14288-.26696.49533-.48538.78322-.48538.2879 0 .74419-.13785 1.014-.30634.69917-.43664 1.41-.0908 1.3068.63589-.0578.4068-.29505.62418-.74616.68357-.3638.0479-.93416.37532-1.2675.72761-.33331.35228-.72026.64052-.85989.64052s-.25388.21431-.25388.47625c0 .4551-.46516 1.1112-.78779 1.1112-.084 0-.41741-.18535-.74084-.41188zm-2.7826-2.7756c-.83512-1.2755-.86367-1.5108-.28379-2.3387.36211-.51699.37282-.65435.0661-.84857-.52017-.32945-.8532-.29507-1.4398.14862-.69389.52483-1.6825.50524-1.8907-.0375-.11648-.30356.10511-.67235.70483-1.173.82726-.69063.98533-1.5592.28374-1.5592-.15009 0-.27289-.1786-.27289-.39688 0-.55-.2098-.50147-1.2447.28792-.96412.73537-1.6657.69275-1.6657-.1012 0-.57409.84056-1.4032 2.0337-2.006.46371-.23427.9174-.54613 1.0082-.69303.0908-.14689-.21873-.80152-.68783-1.4547-.83018-1.156-.84008-1.2018-.37186-1.7192.72787-.8043 1.0797-.66202 2.2371.90469.58356.78993 1.2719 1.5948 1.5297 1.7885.25778.19377.68013.60203.93855.90726.45085.53252.44969.57988-.0286 1.1706l-.4985.61563-.73464-.57787c-.83124-.65385-1.2138-.71525-1.6623-.2668-.23836.23836-.12706.42296.47625.78986.43303.26334.78732.65608.78732.87276 0 .21669.36325.58181.80721.8114.61284.31691.76783.54154.64363.93284-.14277.44982-.0341.51541.85371.51541 1.9856 0 2.9546 1.6056 1.5317 2.538-.36392.23845-.81152.74721-.99466 1.1306-.53016 1.1098-1.2982 1.0225-2.1257-.24148zm-7.9123-3.1975c-1.2125-1.2819-1.4223-2.0817-.54605-2.0817.56856 0 2.98 2.4032 2.98 2.9698 0 .89415-1.1425.47729-2.434-.88806zm-4.5113-4.039c-1.0362-.91584-1.2682-1.6576-.59865-1.9145.44133-.16935 2.7815 1.908 2.7815 2.4691 0 .6321-1.1791.33251-2.1828-.55463zm-4.2995-3.6466c-1.2468-1.0172-1.6557-1.7823-1.0583-1.9804.48615-.1612 3.175 1.9045 3.175 2.4392 0 .8381-.7177.68254-2.1167-.45879zm3.9876-1.1619c-.55798-.55798-.52569-1.7509.0683-2.5251.26628-.34705.56123-.84205.65546-1.1.0942-.25797.38239-.54824.64035-.64507.25796-.0968.60026-.35107.76065-.56501.25307-.33753.38539-.3222 1.0007.1159.62327.4438.6906.63128.55666 1.5501-.20546 1.4094-.56748 1.7949-1.4944 1.5913-.56267-.12358-.79474-.0533-.92244.27952-.0951.24784-.0194.53812.17107.65583.48151.29759.1207 1.0583-.50197 1.0583-.28521 0-.70567-.1871-.93434-.41577zm-8.4856-2.0596c-.29104-.31206-.81791-.75458-1.1708-.98338-.44038-.28551-.58685-.55882-.46694-.8713.14692-.38287.27005-.40531.77395-.14103 1.101.57744 2.5836 1.8653 2.5836 2.2443 0 .56478-1.111.40418-1.7198-.24861zm5.983.11817c-.2265-.14344-.31604-.49875-.23392-.9283.13697-.71652-.15971-1.1651-.45479-.6876-.26518.42905-1.1933.31424-1.1933-.14762 0-.22909.63411-1.0923 1.4091-1.9182 1.2942-1.3793 1.3871-1.5611 1.1391-2.2307-.33553-.90571.0576-1.3892.94785-1.1658.41055.10304.74329.48554.97159 1.1169.33904.93761.32637.97777-.53886 1.7072-.71294.60102-.82145.81325-.55534 1.0862.43813.44943.41722.9153-.10209 2.2751-.43578 1.1411-.71451 1.3202-1.3893.89283zm-4.079-2.1472c-.72891-.57335-.95228-1.4574-.41361-1.6369.16488-.055.43277-.51137.59531-1.0142.24018-.74309.47882-.95959 1.2744-1.1562.71119-.17571 1.0911-.14876 1.3891.0985.74667.61968.47398 1.5524-.86081 2.9445l-1.271 1.3255zm-7.827-1.744c-1.2904-.84843-1.3861-.97586-1.0127-1.3492.44303-.44303.55999-.41407 2.1732.53804.64316.3796 1.0583.8215 1.0583 1.1265 0 .79288-.68036.69622-2.2188-.31525zm5.5261-.89548c-.18268-.34133-.55399-.52916-1.0461-.52916-.57438 0-.89522-.21246-1.2986-.8599-.29464-.47294-.7806-1.0097-1.0799-1.1929-.80201-.49072-.66567-1.1576.41256-2.0179.52621-.41986 1.181-1.2703 1.455-1.8899s.67838-1.1956.89847-1.28c.49639-.19048 1.7168.33967 1.7168.74578 0 .16469-.65122 1.0088-1.4472 1.8758-1.5262 1.6624-1.7318 2.2147-1.0388 2.7898.23344.19374.53146.63374.66227.97778l.23782.62553.66065-.78514c.36336-.43183.66066-1.0288.66066-1.3266 0-.74856.33999-.88735 1.0152-.4144.76773.53774.72691 1.5337-.0892 2.1756-.3638.28616-.66146.77106-.66146 1.0775 0 .70889-.68426.72703-1.0583.0281zm-64.757-1.8492c-.82382-.50229-.85972-.59383-.85555-2.1818.004-1.6858.757-3.5919 1.5169-3.8418.52619-.17304.70689.71483.34767 1.7082-.31207.86301-.2765.99308.65534 2.3965l.98532 1.484-.59346.48055c-.74898.60649-.99549.60101-2.0562-.0457zm3.8365.15795c-.74692-.56699-.55036-1.0429.97452-2.3594 1.5747-1.3595 1.777-1.4341 2.2717-.83813.47626.57386-.40244 2.4347-1.4519 3.0747-.94463.57606-1.1763.59192-1.7943.12281zm49.547-.57016c-.6526-.35696-1.4005-.64902-1.662-.64902-.57013 0-.90533-.71766-.51671-1.1063.19288-.19288.84766-.0469 2.157.4808 1.497.6034 1.8655.86133 1.8087 1.2662-.10326.73611-.45347.73774-1.787.008zm14.189-1.3817c-.0795-.12859-.0752-.49883.01-.82276.10833-.41423.3204-.56522.71485-.50894.7978.11385.78974 1.3703-.01 1.4842-.31369.0447-.63537-.0239-.71484-.15252zm-165.26-1.629c-.16471-.30776-.22629-.67797-.13685-.82269.24985-.40426 1.9561-1.0489 2.7763-1.0489.42444 0 .80075-.17622.89373-.41851.23692-.61739.21936-.63982-.50086-.63982-.82624 0-1.7225-.86599-1.7114-1.6536.01373-.97771 1.1529-2.0505 2.1773-2.0505.96808 0 1.7107.43448 1.809 1.0583.03438.21828-.03188.85247-.14724 1.4093-.12935.62439-.09942 1.2546.07811 1.6442.17746.38949.19182.69112.03743.78653-.13773.0851-.34944.53586-.47046 1.0016-.21561.82983-.25164.84725-1.7901.86591-.86355.0105-1.8278.11099-2.1427.22337-.43869.15653-.64272.0734-.87213-.35524zm3.4689-4.6497c0-.13825-.12799-.29402-.28443-.34617-.15644-.0521-.28443.10363-.28443.34617 0 .24253.12799.3983.28443.34616.15643-.0521.28443-.20792.28443-.34616zm140.45 4.6143c-.50932-.26831-1.1344-.49354-1.3891-.50053-.43892-.012-.63375-.54753-.31514-.86615.17349-.17349 2.7433.72839 3.1044 1.0895.25346.25345.0363.84496-.29136.79363-.10055-.0157-.59954-.24815-1.1089-.51645zm-39.816-1.0292c-.0901-.28377.021-.87317.24675-1.3098.22578-.43661.41051-1.3301.41051-1.9856 0-1.14.0381-1.1989.87767-1.3564.48272-.0906 1.2864-.12572 1.7859-.0781.7014.0668.90827.20644.90827.61308 0 .37664-.226.56763-.79375.67078-.69155.12564-.78523.24521-.72755.92864.0682.80857-.28585 1.7609-.95569 2.5704-.52009.6285-1.5457.59752-1.7522-.0529zm-70.958-.95334c-1.5525-.68003-2.0093-1.9312-1.3605-3.7256.58645-1.6218 2.9461-1.9429 3.628-.49366.20544.43656.49994.87621.65445.97699.16199.10567-.02332.29892-.43772.45648-.78163.29717-.95551.93256-.32176 1.1758.57371.22015.49475 1.4208-.1149 1.7471-.64549.34546-1.0003.32171-2.0477-.13705zm.83963-3.5578c.08994-.14553.03743-.26459-.11668-.26459s-.2802.11906-.2802.26459c0 .14552.0525.26458.11668.26458.06417 0 .19026-.11906.2802-.26458zm93.402 3.7106c-.14879-.24074-2.2461-1.6327-3.4436-2.2855-.78249-.42657-.82992-1.3375-.0816-1.5666.58058-.17775 2.5496-1.0352 4.3506-1.8945 1.0578-.50473 1.794-.36419 1.898.36235.058.40536-.0947.62188-.52917.75001-.99072.2922-2.5809 1.0426-2.5883 1.2213-.01.23109 1.4372.49532 2.7382.50011 1.3352.005 3.4084.5971 3.5472 1.0132.16486.4946-.66309.65116-1.8653.35271-.61578-.15286-1.8935-.35347-2.8394-.44579l-1.7198-.16785.90277.77451c.61006.52339.84867.91551.73591 1.2094-.18324.47753-.85342.58462-1.1056.17667zm10.315-.12417c-1.0686-.33004-1.4276-.99449-.62128-1.1498.68057-.13106 2.3411.66459 2.3411 1.1218 0 .47396-.26211.47823-1.7198.028zm9.1473-.31479c-.88453-1.1245-.59527-2.0442.40484-1.2872.2761.20899.65083.38377.83273.3884.51597.0131.38848-.62198-.19844-.98852-.71725-.44793-.66534-1.0183.14075-1.5465.60856-.39874.63279-.47996.26458-.88683-.52886-.58439-.5194-1.3322.0169-1.3322.23221 0 .73823.16925 1.1245.37612.38626.20686.91334.44229 1.1713.52316.7556.23689.84846.92758.20528 1.5268-.39188.36509-.53669.73407-.43973 1.1204.28762 1.146-1.2578 2.8035-2.6138 2.8035-.19824 0-.60721-.31372-.90882-.69714zm-170.67.0923c-.99216-.502-1.2637-1.5739-.75614-2.9853.40155-1.1166.39828-1.1724-.0687-1.1724-.26965 0-.68531-.29766-.92368-.66146-.63393-.9675-1.4309-.88002-1.4309.15706 0 .596.14386.85614.52917.9569.72857.19052.67351 1.0414-.07962 1.2304-.48701.12223-.61419.34336-.63579 1.1054-.01485.52396-.06913.99478-.12061 1.0463-.05148.0515-.50952.006-1.0179-.1-1.0166-.21295-.97591-.0164-.63788-3.0798.14304-1.2963.09565-1.6607-.25367-1.9506-.62711-.52046-.53751-1.3161.16574-1.4717.32742-.0725 1.5478-.10448 2.712-.0712l2.1167.0605.07909 1.2188c.07595 1.1704.12102 1.2313 1.1364 1.5356 1.1593.34734 1.5626 1.004 1.5626 2.5443 0 .5836-.20295 1.0876-.57906 1.438-.67196.62603-.90353.65169-1.7978.19922zm1.2708-2.2602c.05495-.37345-.05535-.57459-.31511-.57459-.51451 0-.78508.44321-.58649.96072.21546.56147.79894.31158.9016-.38613zm7.0675 2.1741c-.28529-.28529-.4068-.80738-.36698-1.5768.0549-1.0606.14335-1.1912 1.1351-1.6764.59158-.28937 1.284-.58816 1.5386-.66399.59936-.17845.61496-1.4402.02316-1.873-.77212-.56459-.24216-1.2364.90076-1.1419.97165.0804.9962.10879 1.0777 1.2473.04583.64076-.103 1.7347-.33073 2.431-.54517 1.6668-.52976 1.7971.24739 2.0926.69207.26313.8996 1.0016.33073 1.1768-.1819.056-1.1854.17139-2.23.25636-1.5388.12518-1.9802.0736-2.3258-.27202zm6.8812.0697c-.3951-.2889-.45465-.56329-.31364-1.4451.14741-.92188.09283-1.132-.35662-1.3725-.90566-.48469-.65417-1.0596.46151-1.0551 1.3908.006 1.7754.32283 1.7026 1.404-.04142.61503.06978.96211.34169 1.0664.2384.0915.4031.48238.4031.95674 0 .73142-.0771.80205-.87547.80205-.48151 0-1.0949-.16047-1.3632-.35661zm3.8174-.0508c-.26328-.31724-.27179-.6236-.03843-1.3839.28027-.9132.2529-1.015-.42187-1.5707-1.0276-.84617-.43881-1.1256 2.0277-.96236 2.6906.17806 3.0436.39034 2.8336 1.7038-.12547.78462-.07679 1.0331.2024 1.0331.20219 0 .50922.17063.6823.37918.48367.58278-.76676 1.3112-1.8445 1.0745-.99682-.21894-1.2372-.73912-.83451-1.806.35578-.94257.28064-1.0802-.46135-.84465-.39491.12534-.54911.39705-.54911.96759 0 1.5459-.85582 2.3016-1.5963 1.4094zm12.227-.20366c-.72348-.77011-.77945-1.5664-.2227-3.1685.5736-1.6506.56263-1.7432-.24301-2.0494-.94772-.36032-.6649-.90121.52344-1.0011 1.3144-.11047 1.7464.27902 1.563 1.4093-.12932.79692-.06963.9155.53761 1.0679.3757.0943.82161.33836.99092.54236.44469.53582.77221.45595.77221-.18829 0-.51155.09993-.54422 1.1726-.38337.75021.1125 1.3571.0606 1.6847-.144.66475-.41515 1.3035-.15574 1.6865.68489.26168.57432.22305.75975-.26687 1.2812-.31506.33537-.57283.68596-.57283.77911 0 .31618-1.3451 1.5163-1.6994 1.5163-.19385 0-.50067-.1786-.68183-.39688-.18116-.21828-.49339-.39687-.69386-.39687s-.36448-.1786-.36448-.39688c0-.59185-.46267-.47974-.92365.22381-.4366.66633-1.4543 1.2314-2.2177 1.2314-.25883 0-.72893-.27499-1.0447-.61108zm2.0164-1.2939c.37316-.37316.42581-1.27.07456-1.27-.585 0-1.08.35655-1.08.77796 0 .80141.46734 1.0301 1.0054.49204zm2.9633-.88582c0-.49712-.52203-.76173-.85194-.43183-.39511.39511-.04754 1.13.44504.94093.22379-.0859.40689-.31497.40689-.5091zm-32.007 2.1385c-.21033-.25342-.259-.75932-.14053-1.4606.17304-1.0242.14419-1.0857-.63666-1.358-.44985-.15681-.81791-.44379-.81791-.63771 0-.45739.99618-.60174 1.9037-.27585.5179.18598.90275.15452 1.4063-.11497.90902-.48649 1.5848-.0798 1.5848.9537 0 .6404-.12695.78408-.79375.89837-.68127.11677-.80617.26678-.88142 1.0586-.12083 1.2715-.94982 1.7493-1.6245.93634zm36.388-.20031c-.52533-.75002-.52513-1.8651.00052-2.8816.5544-1.0721 1.0246-.84029 1.1262.55523.06127.84163.25695 1.2821.73756 1.6601.51683.40654.58973.59222.34723.88441-.48106.57964-1.7397.45545-2.2115-.2182zm82.51-.30676c-.3594-.93659 2.2071-2.3291 3.4287-1.8603.81489.3127.43111.78586-1.2212 1.5057-1.9043.82956-2.0182.84786-2.2074.35467zm45.136-.2958c0-.4493-.41432-.53217-.66146-.13229-.29467.47679-1.4147.27959-1.8371-.32345-.58411-.83393-.51209-1.9438.16718-2.5767.68947-.64234 1.5436-.6868 2.6091-.1358.74538.38545 1.0557.91925.53443.91925-.4813 0-.41488 1.191.0898 1.6108.27837.23155.41983.55818.31512.72761-.27591.44642-1.2171.37726-1.2171-.0894zm-1.0583-1.5875c0-.21828-.11907-.39687-.26459-.39687s-.26458.17859-.26458.39687.11906.39688.26458.39688.26459-.1786.26459-.39688zm-4.1804.34396c-.17462-.17462-.3175-.70338-.3175-1.175 0-1.2468-.40198-1.2982-.76176-.0974-.34963 1.167-.58891 1.3996-1.1987 1.1656-.58948-.22621-.53037-1.4763.12209-2.5821.46768-.79265.5913-1.329.75323-3.2681.0148-.17678.28676-.46052.60443-.63054.86325-.46199 1.5391.49172 1.5391 2.1719 0 .71149.0762 1.2936.16927 1.2936.281 0 .87166-.89774.88065-1.3385.005-.22685.17626-.64199.3814-.92253.366-.50054.38332-.50072.92604-.01.30418.27529.55306.59271.55306.70539 0 .11267-.45434.89789-1.0096 1.7449-.55531.84703-1.1651 1.927-1.355 2.4-.36323.90435-.75814 1.0708-1.2866.54239zm-28.588-.18127c-.70453-.44648-.22062-1.2042.88367-1.3837 1.2865-.20911 1.722-.0628 1.722.57855 0 .84726-1.707 1.3747-2.6057.80515zm5.0023-.53096c-.3922-.73283.0144-1 1.7562-1.1539 1.9225-.16986 2.8004.22834 2.301 1.0436-.42258.68986-3.6994.7789-4.0572.11024zm-9.4742-.99758c-.1819-.0734-.32289-.33189-.31332-.57442.0319-.80774 2.5116-5.4638 2.9555-5.5493.23832-.0459.62718.21242.86412.57405.41711.63659.38669.73806-.95648 3.1912-1.3342 2.4368-1.6445 2.7238-2.5498 2.3585zm-114.5-.8831c-.24429-.39528.09561-.79375.67707-.79375.33716 0 .51355.18175.51355.52916 0 .5612-.88567.75801-1.1906.26459zm25.856-.0466c-.46237-.46236.13479-1.1351.63735-.71799.19897.16513.36177.46426.36177.66472 0 .44606-.57564.47675-.99912.0533zm93.008-6.5892c-.70555-.41095-.5609-1.2686.52917-3.1374.71141-1.2197 1.195-1.7549 1.7088-1.8912 1.0098-.26799 1.5261.36266.99036 1.2096-.21125.33396-.85592 1.3942-1.4326 2.356s-1.1125 1.7452-1.1906 1.7408c-.0781-.004-.35044-.1294-.6051-.27773zm-4.1926-2.4177c-.78636-.62313-1.6577-1.2586-1.9363-1.4121-.27862-.15354-.67091-.52666-.87175-.82914-.31723-.47778-.30606-.60908.0851-1.0003.37828-.37828.74659-.42055 2.3028-.26427l1.8524.18604-1.1003-1.3049c-.60515-.71767-1.1003-1.5056-1.1003-1.7508 0-.75476.9537-.50274 1.8166.48005.91089 1.0374 1.259 1.1999.82224.38379-.82731-1.5458.457-2.8137 2.1883-2.1602.5549.20946.92827.2279 1.1017.0544.14432-.14432.47671-.2624.73865-.2624.69948 0 .64121 1.2349-.0689 1.4603-.44081.1399-.51352.31704-.37989.92547.1866.84959-.37206 1.3184-1.5711 1.3184-.68271 0-.90646.35726-.41427.66146.40585.25082.31417 1.1366-.1442 1.3931-.22483.12582-1.0285.1467-1.7859.0464-.75743-.10031-1.4272-.13733-1.4884-.0823-.18665.16785 1.0879 1.4013 1.6237 1.5714.35611.11302.47893.35916.42118.84404-.12306 1.0331-.52402.98357-2.0914-.25841zm3.7869-6.3408c-.40415-.40415-.70237-.10593-.47821.47822.13235.3449.2471.37908.48248.1437s.23436-.38329-.004-.62192zm-18.578 5.5033c0-.98714-.55673-1.3448-1.931-1.2404-.40718.0309-1.1581-.1903-1.6688-.49158-1.1709-.69087-1.2078-.68681-1.0075.11119.11991.47775.04288.70601-.28006.82993-.72526.27831-1.1828-.46998-1.3674-2.2366-.13172-1.2602-.35482-1.8873-.92813-2.6087-.92297-1.1614-1.0856-2.9936-.26574-2.9936.31394 0 .65855.37604.96269 1.0505.60951 1.3517 1.1874 1.8585 2.7245 2.3896 1.3042.45063 1.8883 1.3224.88596 1.3224-.29312 0-.60064.10953-.68338.2434-.18227.29492 1.0448 1.3007 1.8262 1.4968.72301.18146 2.0344-.31318 1.9779-.74606-.10075-.77238.05751-.99416.70944-.99416.60403 0 .66943.0825.52413.66146-.13338.5314-.0674.66146.33579.66146.61139 0 1.2089.66126.96056 1.0631-.0994.16087-.45584.39707-.79202.52489-.37972.14437-.67861.53907-.78907 1.042-.12308.56033-.33428.80961-.68597.80961-.40101 0-.50814-.18873-.50814-.89518zm4.3806-1.2804c-.56905-.81244-.52683-1.04.38188-2.0578.68221-.76413.79375-1.0979.79375-2.3752 0-1.3726-.0769-1.5613-1.0073-2.4697-1.1599-1.1326-2.2236-1.5051-4.2982-1.5051-1.6213 0-2.4902-.43046-2.2312-1.1054.34418-.8969 3.3671-1.0219 5.4622-.22587 1.3159.50002 3.1329 1.9445 3.1329 2.4906 0 .14397.23084.50757.51298.80799.80614.85837.80103 3.1916-.01 4.4186-.34958.5291-.83842 1.3328-1.0863 1.7859-.53122.97113-1.081 1.0497-1.651.23591zm17.737-1.8276c-.15653-.97892-.061-1.2674.91676-2.7681 1.1608-1.7816 1.7519-2.1653 2.6199-1.7007.73.39068.68429.65858-.3319 1.9452-.47908.60658-1.0395 1.46-1.2454 1.8966-.93191 1.9762-1.7042 2.2234-1.9594.62702zm-118.52-4.3266c-.21572-.21572-.3294-.63244-.25262-.92604.09298-.35556.01046-.53382-.24713-.53382-.34887 0-1.2625-.78862-1.2625-1.0898 0-.21597 2.0091-2.3498 2.2124-2.3498.10798 0 .3184.35017.4676.77815.19513.55974.46975.8011.97842.8599.55612.0643.70716.22303.70716.7432 0 .52491-.15021.67875-.7276.74518-.75937.0874-.9398.5243-.42789 1.0362.42067.42067.0837 1.129-.5371 1.129-.28521 0-.69507-.1765-.91079-.39222zm64.308.0615c-.0659-.1819.05768-.53465.27462-.78389.21694-.24924.33394-.61084.25999-.80354-.10791-.2812-.61892-.30094-2.5884-.1-2.3879.24363-2.4673.23396-2.9474-.35895-.43528-.53754-.44934-.67495-.11941-1.1666.32988-.49159.62671-.55618 2.517-.54769 1.3152.006 2.267.13365 2.4641.33072.37473.37474 2.0674.43672 2.0674.0757 0-.13497-.37488-.53879-.83306-.89737-.55377-.43339-.77831-.79464-.66976-1.0775.26757-.69728 1.4556-.50981 2.2453.35431.39198.42891 1.1742.97257 1.7383 1.2081 1.0099.42171 1.0366.41772 1.7446-.26062.39548-.37889 1.1428-.75767 1.6608-.84172.77014-.12497.99456-.0541 1.2316.38889.15945.29794.52817.61733.81936.70975.72461.22998.72482 1.4538.00028 1.6432-.29104.0761-.52917.34804-.52917.60429s-.18312.61788-.40692.80363c-.34339.28498-.54518.18677-1.2925-.62906-.87464-.95489-2.0357-1.2944-2.4017-.7022-.08994.14552-.46986.26458-.84428.26458-.81819 0-2.3646.90922-2.7402 1.6112-.30259.5654-1.4645.68844-1.6506.17479zm-84.128-.11347c-.27977-.0748-.46302-.37788-.46302-.76582 0-.35314-.0893-.65117-.19844-.66231-1.2604-.12857-1.8041-.52905-1.5648-1.1526.09575-.24951.47656-.41466.95613-.41466.65443 0 .82554-.13017.95644-.72761.33294-1.5194.38203-1.5668.92864-.89673.28023.34355.50951.84221.50951 1.1082 0 .35749.17994.47054.69037.43371.82932-.0598 1.4543.68944.97497 1.1688-.16893.16893-.58297.32103-.9201.33801-.49515.0249-.6148.18308-.62258.82285-.0098.80477-.32592.99442-1.2471.74819zm37.966-.12651c-.18088-.18088-.32887-.66225-.32887-1.0697 0-.56825-.1252-.74083-.53747-.74083-.60703 0-.93929-.59536-.6203-1.1115.11662-.1887.21647-.58135.22188-.87257.0065-.34981.18941-.52948.53901-.52948.29104 0 .64389-.26136.7841-.58081.14021-.31944.49918-.64211.79771-.71704.29853-.0749 1.1958-.73089 1.994-1.4577l1.4512-1.3215-.98609-.012c-.75489-.009-1.0887-.16868-1.4239-.68025-.41113-.62747-.40785-.70414.05376-1.2568.83479-.99939 1.2389-1.25 2.0158-1.25.60183 0 .90061.23905 1.5205 1.2166.85207 1.3436.78347 2.0397-.31677 3.2142-.67967.72556-.47773.97294.80363.98444.8058.007.99366.11242 1.0622.59475.11719.82412-1.0947 1.1141-2.1426.5127-.73091-.41949-.80295-.41339-1.5704.13306-.64391.4585-.89994.51299-1.2839.27323-.7882-.49224-.93594.56872-.21932 1.5751.53118.74598.54869.86206.17159 1.1378-.26233.19181-.40316.64957-.37521 1.2196.0388.79137-.04333.92282-.61858.99004-.36482.0426-.81131-.0705-.99219-.25135zm17.491-.75226c-.21019-1.051-1.2377-1.7998-1.8137-1.3218-.21755.18055-.39555.25142-.39555.15749 0-.0939-.26789.004-.59531.21708-.7661.49915-8.5002 1.0541-9.232.66246-.50285-.26912-.63598-.94228-.28892-1.4609.33524-.50095 8.5978-1.1155 9.1526-.68079.16622.13026.62648.31426 1.0228.40889.54876.13102.68722.0852.58074-.19232-.07875-.20521.23301-.67807.71372-1.0826.71381-.60062 1.0086-.68925 1.8005-.54135.52084.0973.94738.196.94787.2194s.28239.44363.62644.93383l.62554.89129-.67733.56392c-.37253.31016-.71396.86158-.75873 1.2254-.06159.50055-.25915.6819-.81204.74548-.63288.0728-.75284-.027-.89655-.74553zm18.428.00005c-.29104-.29104-.52917-.69318-.52917-.89364s-.17859-.5127-.39688-.69386c-.52797-.43817-.50384-1.4427.04791-1.9945.67614-.67615 2.6694-.37844 3.4364.51325.32524.37812.82816.68748 1.1176.68748.28943 0 .59983.11907.68976.26459.09296.15042-.13265.26458-.52286.26458-.90767 0-1.9907.73121-1.9907 1.344 0 .26918-.2303.61268-.51177.76332-.68272.36538-.72835.35669-1.3403-.25528zm36.573-.0452c-.17887-.17887-.32522-.47581-.32522-.65987s-.23812-.46209-.52917-.61785c-.75548-.40432-.65737-.95255.35746-1.9975.81541-.8396 1.7592-1.2137 1.7592-.69735 0 .11857.41672.4143.92604.65718s.92604.53609.92604.65159c0 .48273-.86051 1.3861-1.3203 1.3861-.34461 0-.52221.22199-.58031.72534-.09131.79113-.69858 1.0675-1.2137.55238zm-104.51-.36727c-.32296-.22621-.5872-.56855-.5872-.76077 0-.79648.77758-.99866 3.7645-.97885 1.6403.0109 3.4202-.0813 3.9554-.20479 1.2494-.28837 2.1738.14442 2.2821 1.0684.06387.54532-.08009.74994-.71163 1.0115-.43544.18036-.92389.24624-1.0855.14638-.35189-.21748-5.8822-.23504-6.5571-.0208-.26032.0826-.73755-.0349-1.0605-.26107zm20.116.13986c-.73287-.29485-.82656-1.4794-.13229-1.6727.25466-.0709 2.2731-.10832 4.4855-.0832 4.2542.0484 5.1218.27369 4.283 1.1124-.30871.3087-1.2041.42434-3.8251.49398-1.8821.05-3.6007.15799-3.8189.23997-.21828.082-.66477.0413-.99219-.0905zm35.086-.29426c-.27031-.27031-.49147-.66542-.49147-.87804 0-.67271 1.109-1.4638 2.1004-1.4983 1.9144-.0667 3.8616.093 4.1657.34153.20864.17054.53111.11297.96701-.17264.60677-.39758.72572-.39408 1.6475.0484 1.435.68896 1.733 1.3028.9458 1.9487-.4746.38947-1.0466.51528-2.3812.52377-.96614.006-2.8154.0487-4.1094.0946-2.0098.0713-2.4245.0118-2.8443-.40806zm80.912.39048c-.38324-.38324-.13311-1.2715.79589-2.8264.53475-.89506 1.1328-1.8953 1.329-2.2227.43173-.72045 1.1655-.76695 1.7587-.11145.62139.68662.55669.97062-.4834 2.1219-.50671.56087-.85838 1.0827-.78149 1.1596.0769.0769-.26673.57084-.7636 1.0977-.86046.91235-1.4683 1.1684-1.8552.78149zm-3.9013-.51002c-.29831-.35945-.25933-.49028.26361-.88474.53278-.40188.57165-.54145.29481-1.0587l-.31887-.59582-.5166.55451c-.71808.77077-.95701.7006-1.4246-.41838-.31176-.74615-.47908-.9003-.71793-.66146-.4494.44941-1.4445.3828-1.6334-.10932-.32742-.85324 1.2222-2.4897 2.3575-2.4897.16232 0 .4898.40824.72773.90719.31453.65958.6325.93039 1.1649.99219.91425.10611 1.955 1.5378 1.746 2.4018-.14729.60887-1.0743 1.7842-1.4072 1.7842-.10233 0-.3436-.18982-.53615-.42182zm-40.8-.0582c-.75194-.14572-.829-1.088-.14824-1.8127.51912-.55258.77116-.63132 1.5463-.48309 1.0858.20762 4.0895.43133 5.9044.43974 1.0897.005 1.3165.099 1.5671.64899.17873.39226.19777.73586.04883.88097-.2291.22319-7.9859.50679-8.9184.32606zm-71.344-3.3348c-.43594-.52527-.28534-3.1915.27022-4.7841.58877-1.6878 1.3724-1.9307 1.9822-.61443 1.0881 2.3487 1.2459 2.4145 1.5755.65744.10435-.55621.35772-1.0758.56304-1.1546.78126-.2998 1.8899 1.4464 1.1921 1.8777-.12093.0747-.37815.97474-.57161 2-.43122 2.2854-.93078 2.4513-1.9816.65814-.82985-1.416-1.2944-1.4054-1.4138.0324-.12977 1.5636-.89699 2.1938-1.616 1.3274zm6.0808-.458c-.73956-1.213-.68031-1.9377.23691-2.8975.64999-.68015.91089-.78664 1.5717-.64149.48549.10663 1.0002.50026 1.3289 1.0164.2951.46328.70974 1.0805.92142 1.3715s.42382.76729.47142 1.0583c.0714.43656-.07551.53931-.8395.58716-.50932.0319-1.4265.13318-2.0382.22506-1.0505.15779-1.1421.11791-1.6527-.71946zm2.05-.93039c.0434-.29238-.09712-.67769-.31228-.85626-.55478-.46042-1.1563.60614-.67133 1.1904.41616.50144.88311.34279.98361-.33418zm72.608 1.1684c-.41887-.51146-.8209-3.6834-.55551-4.3828.12782-.3369.23241-.95334.23241-1.3699 0-1.0212 1.1487-1.9659 1.9009-1.5634.34448.18436.46176.42929.34562.72178-.23184.58389-.48735 3.3177-.44658 4.7781.0499 1.787-.72264 2.7371-1.4768 1.8162zm39.746-2.697c-.57077-.42445-.6227-.28625 1.0739-2.858.43656-.66174.91572-1.4079 1.0648-1.6581.17584-.29516.63744-.46743 1.3141-.49044 1.3974-.0475 1.4982.54975.33991 2.0134-.49018.61938-1.2293 1.6322-1.6426 2.2506-.79405 1.1884-1.3106 1.3668-2.1501.74254zm-3.3433-2.644c-.3922-.34535-1.2655-1.2499-1.9407-2.0102-1.1002-1.2388-1.1858-1.4242-.82414-1.7858.41767-.41768.5055-.38331 2.1524.84234.21091.15696.52855.0297.9316-.3734l.61157-.61157-.77803-.69518c-.42792-.38235-1.0722-.90482-1.4317-1.161-.63876-.45523-.64196-.47464-.14011-.84965.83593-.62466 1.3758-.4498 2.2869.74069.47332.61847 1.277 1.4909 1.7858 1.9388.54937.48347.84737.94029.73354 1.1245-.24561.39741-1.0236.39955-1.4193.004-.232-.23199-.40528-.22413-.71438.0324-.57236.47502-.50767 1.3244.15455 2.0293 1.1583 1.2329-.10089 1.9259-1.408.77494zm-114.51.0115c0-.25099.792-.37749.93318-.14904.08601.13916-.08877.25302-.3884.25302s-.54478-.0468-.54478-.10398zm122.82-3.6531c-.49589-.4959-.38698-.90556.60081-2.2599 2.0082-2.7534 1.9886-2.7348 2.5555-2.4314.28865.15448.58987.45038.66937.65754.16304.4249-2.3405 3.9474-2.9799 4.1928-.52639.20199-.4751.21164-.84582-.15908zm-43.873-.33129c-.08109-.21131-.08102-.49166.00015-.623.08117-.13133-.1464-.51498-.50572-.85254-.7432-.69819-.79972-1.0139-.30315-1.693.30468-.41667.42408-.43269.91944-.12334.44922.28054.63764.28717.89339.0314.74896-.74896 2.2696-.093 1.9167.82684-.1113.29003.05468.52335.5246.73746.77845.35469.87596.80073.2827 1.2931-.32305.26811-.54923.27003-1.1209.01-.634-.28887-.75832-.26296-1.0828.22568-.42187.63537-1.3075.73288-1.5244.16782zm38.867-.93506c-1.279-.57264-1.6662-1.167-1.4691-2.2554.19879-1.0979.5917-1.5122 1.2722-1.3414.49801.12499.63247-.0264.97401-1.0965.54375-1.7037.95761-1.9079 2.4032-1.186.64311.32119 1.3051.58397 1.471.58397.36263 0 .39866.58818.0575.93928-.13432.13824-.28315.60854-.33073 1.0451-.0721.66204-.26034.85051-1.1341 1.1358-1.339.4372-1.3748.48293-.84027 1.0736.47848.52871.36566.72006-.77149 1.3085-.41512.21482-.79886.16616-1.6323-.20698zm1.6589-1.7986c-.25475-.25475-.93908.20947-.93908.63703 0 .40717.0464.40418.53079-.0342.29194-.2642.47567-.53549.40829-.60286zm-1.7328-.32172c0-.14552-.11906-.26458-.26458-.26458s-.26458.11906-.26458.26458c0 .14553.11906.26459.26458.26459s.26458-.11906.26458-.26459zm1.3714-.58649c-.18986-.18985-.31309-.20547-.31309-.0397 0 .35316.3129.66606.48948.48948.0752-.0752-.004-.27759-.17639-.44979zm1.8825-.9035c.26165-.26165-.31831-1.1558-.74965-1.1558-.45994 0-.47817.13008-.11368.81115.28087.5248.56842.6396.86333.34469zm-39.325-.009c-.40228-.40228-.1216-1.2912.73953-2.3421.98552-1.2027.97053-1.5354-.05755-1.2774-.8344.20942-1.1489-.28395-.80679-1.2655.22048-.63246.34166-.70931.76297-.48384.37563.20103.76377.13393 1.5524-.26841.57836-.29505 1.2874-.53646 1.5756-.53646s.59768-.11906.68761-.26459c.23499-.38022 1.1918-.32677 1.1841.0662-.01247.63413-1.0472 3.4358-1.5982 4.3274-.56489.914-1.1718 1.1649-1.3729.56744-.15993-.47517-.99112.2494-.99112.86399 0 .63384-1.2117 1.0773-1.6757.61327zm45.589-1.2878c-.41545-.50058-.23704-.86564 1.6765-3.4306 1.4461-1.9384 2.3911-2.4338 3.0736-1.6115.27647.33314.12045.6767-.93726 2.0639-1.6608 2.1781-2.7903 3.384-3.1697 3.384-.16844 0-.45785-.18265-.64312-.40589zm-3.8134-1.3165c-.28247-.21683-.95434-.39423-1.493-.39423-.59621 0-1.0352-.14518-1.1218-.37101-.19477-.50757.0427-.68733.90799-.68733.77712 0 1.2209-.37987.76958-.65879-.35373-.21862-.34544-1.1148.0124-1.3359.35441-.21904 1.236.56192 1.4697 1.302.0974.30823.40482.72075.68326.9167.65023.45759.52949 1.4735-.1853 1.5593-.29104.0349-.76028-.1139-1.0428-.33072zm2.8239-2.0248c.077-1.195.20697-1.0992-2.2442-1.6543-1.0698-.24229-1.0168-1.213.0661-1.213.43657 0 .79375-.11906.79375-.26458s-.11906-.26459-.26458-.26459c-.40821 0-.31286-.95347.13229-1.3229.30468-.25286.48374-.25729.77076-.0191.50827.42182 2.234 3.3478 2.4262 4.1136.22248.88641-.31 1.7263-1.0944 1.7263-.60569 0-.65141-.0859-.586-1.1014zm-38.099-3.2451c-.17882-.28934-.12435-1.8799.0882-2.5744.17448-.57027.88502-.83574 1.3047-.48746.18139.15054.50814.20528.7261.12164.7465-.28646 1.6723 1.1788 1.0052 1.591-.13917.086-.18377.33688-.0991.55749.0873.22748-.0609.5594-.34228.76678-.55857.41161-2.433.42905-2.6828.025zm45.355-1.4291c-.69218-.76485-.53261-1.2019.95118-2.6052.76398-.72254 1.4486-1.4229 1.5214-1.5563.0743-.13625-.73755-.25451-1.8521-.26977-1.7666-.0242-2.0494.0419-2.577.60264-.48514.51558-.6891.57819-1.1245.34518-.29251-.15655-.53184-.45904-.53184-.6722s-.11906-.38757-.26459-.38757c-.32772 0-1.3229-.97304-1.3229-1.2935 0-.12933.40475-.31107.89945-.40388.4947-.0928 1.0451-.34418 1.223-.55861.48163-.58034 1.0341-.47266 1.311.2555.39573 1.0408 1.0871 1.2555 3.039.94369.9472-.15131 2.0513-.2777 2.4535-.28085 3.7921-.0298 4.3797-.20241 4.6642-1.3706.16943-.69557.15007-.71184-.49642-.41728-1.3597.61951-1.5732-.83581-.31774-2.1652.61312-.64922.61475-.66501.0957-.92604-.29041-.14606-.72544-.62275-.96674-1.0593s-.57787-.80863-.74793-.82682c-.17006-.0182-.48779-.048-.70607-.0661-.64241-.0535-.45524-.77738.33073-1.279 1.1215-.71579 2.0274-1.7626 2.5738-2.9744.69158-1.5336 1.1618-1.7204 2.331-.92585.52471.35656 1.2453.64828 1.6012.64828s.71572.17859.79948.39688c.19729.51412 1.193.50988 1.7647-.008.34346-.31084.60845-.34296 1.1453-.13884.38415.14605.69846.42857.69846.62782 0 .47507-1.0474 1.6814-2.012 2.3173-1.599 1.0541-2.6893.32144-1.6642-1.1182.30742-.43173.48162-.86229.3871-.95681-.28433-.28433-1.5997.6556-1.6853 1.2042-.13337.85517-1.1974 1.2519-2.3951.89305-1.4416-.43191-1.4486-.42766-1.2583.76241.27996 1.7508 1.2468 2.7667 1.6451 1.7287.20763-.54107.85475-.72329 1.4456-.40707.82709.44264.58685 1.112-.80351 2.2387-1.3661 1.107-1.5998 1.5605-.93545 1.8155.21828.0838.39687.34082.39687.57124 0 .23041.35719.54345.79375.69564.84324.29395 1.0572.9342.39688 1.1876-.21828.0838-.39688.36845-.39688.63264 0 .31811-.32614.58797-.9657.79905-.88578.29233-1.0027.26962-1.4131-.27444-.38989-.51689-.59738-.56974-1.614-.41115-1.9153.29879-2.1302.402-1.9591.94102.17354.54679-.18193 1.0555-2.0623 2.9516-1.3896 1.4012-1.741 1.5176-2.3959.79399zm-39.684-1.5446c-.3258-.3258-.19126-1.9403.16169-1.9403.18594 0 .53917-.23486.78495-.52191.24578-.28706.77826-.59466 1.1833-.68356s.91499-.22776 1.1333-.30857c.67732-.25075 1.3919-.36164 3.2088-.4979 1.4065-.10548 1.841-.0442 2.1946.30947.60736.60736.40574.99203-.6617 1.2624-2.3671.59965-3.9372 1.1401-5.2709 1.8144-1.4247.72023-2.3817.91832-2.734.56595zm18.08-2.7016c0-.1277.1786-.3804.39688-.56156.70153-.58222.44468-.84834-.64165-.66481-1.226.20714-2.1365-.19002-2.1365-.932 0-.56744.072-.58711 1.9182-.52375 1.2383.0425 1.5202-.15604.98351-.6927-.5073-.50731.0156-1.1555.93217-1.1555.64628 0 .90232.13556 1.0062.5327.0766.29299.55861.7079 1.0711.92203.51249.21414 1.0101.51598 1.1057.67077.22177.35882.92058-.1789.92058-.70836 0-.46449 1.1529-1.0098 1.695-.8018.22322.0857.48866.48827.58986.89468.1012.40642.37264.87892.6032 1.05.37082.27518.32952.40494-.35791 1.1245-.86572.90616-1.669 1.0531-1.9154.35038-.0893-.25466-.39989-.6547-.69021-.88898-.48838-.3941-.56468-.38915-1.02.0661-.27066.27066-.71202.49211-.98079.49211-.26878 0-.76324.23813-1.0988.52917-.60825.52754-2.3812.74866-2.3812.29698zm-7.7391-.21478c-.74416-.19447-.53901-.97017.57601-2.178 1.119-1.2122 1.9443-1.3566 2.0861-.3652.0512.35793.30185.60757.66146.65875.34605.0493.6102.30007.65646.62335.13903.97135-2.2238 1.72-3.98 1.2611zm19.443-.60127c-1.9939-.18347-2.6202-.49074-2.3635-1.1596.23485-.61202 3.2646-.67094 5.1914-.10096 1.1153.32994 1.5453.57651 1.448.83021-.12949.33746-1.3884.73305-2.056.64604-.16371-.0213-1.1627-.1184-2.2199-.21569zm22.075-1.5094c-.50143-.50144-.002-1.1108 1.7398-2.1239 1.9081-1.1096 1.9276-1.1841.39887-1.5191-.51444-.11273-.72761-.32355-.72761-.71961 0-.54034.0888-.55553 2.5075-.42902 2.3546.12316 2.5304.0962 2.8834-.44256.20781-.31715.31533-.89066.24043-1.2824-.17757-.92893.5301-1.2326 1.2835-.55074.30118.27256.83002.45599 1.1818.4099.71282-.0934 1.1246.55292.68962 1.0826-.14786.18005-.31001.61286-.36033.9618-.13454.93285-.86454 1.3058-1.4748.75352-.27849-.25203-.71992-.38129-1.0274-.30087-.63715.16662-1.2125 1.5725-.99043 2.42.19969.76203-.2552 1.3061-1.2803 1.5312-.94581.20773-1.3779-.24434-.9671-1.0119.36787-.68738.0668-.89775-.52213-.3648-.26702.24164-.56012.43935-.65134.43935-.0912 0-.60447.29766-1.1406.66146-.99106.67255-1.4661.8018-1.7828.48507zm-8.1493-3.3293c-.33032-.47294-.66827-.91943-.751-.99219-.0827-.0728-.29428-.45971-.4701-.85989-.40452-.92072-.60795-.91253-1.4739.0594-.78905.88557-1.5029.82587-1.5029-.12569 0-.3828.58305-1.2009 1.5875-2.2274.87313-.89231 1.5875-1.7384 1.5875-1.8802 0-.37975 1.2581-.31425 1.4001.0729.0667.1819-.10836.71234-.38906 1.1787l-.51035.84802 1.3645 2.0023c1.1207 1.6445 1.3066 2.0722 1.0402 2.3931-.52361.63092-1.2386.45276-1.8824-.46907zm19.085-4.4431c0-.29726.46005-1.1632 1.0223-1.9243 1.0688-1.4467 2.1527-3.4002 2.1527-3.8797 0-.16957-.27145-.21203-.68764-.10757-.57523.14437-.6723.0911-.59377-.32569.0516-.27405.37203-.61734.712-.76286.54363-.2327.60298-.40166.4925-1.4021-.15145-1.3715-.25554-1.4999-.92546-1.1414-.40473.21661-.61292.17319-.9487-.19783-.66623-.73617-.51907-1.2261.60148-2.0027l1.0317-.71494-.14031-1.5473c-.12759-1.4071-.0783-1.6094.54382-2.2315.37626-.37627.88138-.68412 1.1225-.68412.44018 0 .4269.53408-.0642 2.5797-.16761.69823.28514.79159.89266.18407.54495-.54495 1.7682-.39365 1.8872.23342.0589.31044-.36364.90176-1.1799 1.6512-1.2382 1.1368-1.2711 1.2066-1.2502 2.6534.0118.81723.15504 1.5684.31827 1.6693.43007.2658.68131 1.7765.33141 1.9927-.16019.099-.29126.38133-.29128.6274-.00004.52426-2.2553 4.0888-3.2544 5.1438-.83065.8771-1.7727.97655-1.7727.18714zm-10.538-3.8274c-.43086-.36254-.90699-.65917-1.0581-.65917-.39091 0-.65151-.98187-.46151-1.7389.21003-.8368 1.0211-.83704 1.5692-.00045.23133.35304.84033.79368 1.3534.97919 1.1573.41847 1.2233 1.1255.15658 1.6771-.7337.37941-.81905.36531-1.5596-.25778zm5.3751-.49662c-.71895-.52571-.35095-1.1163 1.8944-3.0402 2.1058-1.8044 3.0038-2.0696 3.0038-.88712 0 .41097-.26162.98971-.59531 1.3169-.63656.62421-3.5734 2.977-3.716 2.977-.047 0-.31108-.16498-.58684-.36662zm-2.7593-2.8443c-.29846-.48954-.54309-1.0205-.54363-1.1798-.00055-.15935-.24193-.50777-.53641-.77427-.41046-.37146-.60806-.41191-.84667-.1733-.4841.4841-1.2104.36708-1.3984-.22532-.18998-.5986.62877-1.4576 1.6579-1.7395 1.0439-.28587 2.2232.91499 2.8154 2.8667.10602.34943.32256.42172.91081.30407.47012-.09402.84853-.03009.96822.16358.27896.45137-.63841 1.2786-1.6401 1.4789-.75361.15072-.90292.0731-1.3872-.72118zm15.661-7.5476c-.1819-.0734-.33073-.4553-.33073-.84868 0-.55262.30861-.94562 1.3574-1.7286 1.5036-1.1226 2.7539-1.3642 3.2326-.62474.24584.37977.13774.61389-.62502 1.3537-1.0004.97021-2.6148 2.0336-3.0389 2.0017-.14552-.01094-.41341-.07995-.59531-.15335zm4.6873-3.4831c-.77351-.62635-.53468-1.3651.74702-2.3108.54-.39844 1.133-.91123 1.3178-1.1395.18478-.22831.75992-.42984 1.2781-.44783.73376-.02548 1.038.11368 1.3758.62923.40601.61965.40314.68037-.045.95034-.26331.15861-1.0932.74409-1.8441 1.3011-2.0453 1.517-2.1613 1.5587-2.8296 1.0176zm-9.1489-.24432c-.08-.25466-.25489-.73651-.38857-1.0708-.44368-1.1094-.30508-1.6412.4277-1.6412.36893 0 .95083-.1835 1.2931-.40778.56492-.37015.66312-.367 1.0642.03411.24304.24304.38259.59643.31011.78531-.0725.18888.0397.48576.24937.65974.62426.51809.43559 1.0476-.43534 1.2218-.44907.08981-.87853.32496-.95435.52255-.20211.52668-1.393.44779-1.5663-.10377zm14.553-3.9221c-.23073-.9193.26707-1.9178 1.1173-2.241 2.0572-.78216 4.5899-2.1864 4.728-2.6215.0861-.27118.33055-.55985.54329-.64149.6634-.25457.42361-.6942-.37864-.6942-1.0611 0-1.2962-.72516-.35398-1.092.82586-.32155 5.0734-.07668 5.4718.31544.42158.41495.67469.2786.67469-.36349 0-.87531.5086-1.4001 1.7198-1.7746.58208-.17998 1.2369-.48149 1.4552-.67004.78108-.67468 1.7671-.7336 2.3597-.141.47274.47274.50503.63326.22136 1.1005-.38512.6343-4.3232 2.6253-5.1928 2.6253-.66488 0-1.8652 1.2201-1.8778 1.9089-.005.24954-.24984.58295-.54499.74091-.29515.15796-.7248.75746-.95477 1.3322-.37186.92936-.51746 1.045-1.3154 1.045-1.0028 0-1.0785-.20505-.49365-1.3361.36541-.70662.36374-.78061-.0177-.78061-.23173 0-.81157.29766-1.2885.66146s-.94631.66146-1.043.66146c-.0967 0-.66884.35719-1.2715.79375-.60265.43656-1.238.79375-1.4119.79375-.17389 0-.53167.23812-.79506.52917-.65175.72018-1.1466.6646-1.3514-.1518zm-12.098.24c-.35909-.35909-.14738-.86314 1.04-2.4761 1.1695-1.5887 1.19-1.6473.53084-1.5213-.96138.18378-1.523-.50511-.8268-1.0142.27698-.20253.65987-.36824.85086-.36824.191 0 .79156-.23812 1.3346-.52917s1.2013-.52917 1.4628-.52917c.59479 0 .99139 1.0012.70151 1.7708-.12019.31912-.15593.8549-.0794 1.1906.27863 1.2228.23201 1.4041-.38357 1.4914-.3657.05187-.77127-.10963-.9963-.39675-.36366-.46399-.39871-.45856-.83843.12988-1.6568 2.2171-2.3072 2.741-2.7961 2.2522zm5.3892-7.4791c-.37968-.70944-.34347-2.133.0568-2.2345.1819-.04613.74745-.23099 1.2568-.41079 1.4185-.50076 1.7115-.47144 1.8042.18054.0466.32742-.0427.59531-.19831.59531-.45137 0-.32731.8348.18004 1.2114.44073.32718.44053.36654-.004.81775-.40046.40622-.54683.42435-1.0234.12674-.39885-.24909-.63704-.26633-.84239-.06097-.43411.43411-.92465.34415-1.2295-.22547zm26.219-2.6416c-.14165-.08754-.33417-.46447-.42782-.83761-.18864-.75159.2217-1.2471 1.1866-1.4329.32074-.06177.71984-.21911.88689-.34965.16706-.13054.67339-.30719 1.1252-.39256.93292-.17628 2.0349.42712 1.9051 1.0431-.093.44128-4.2891 2.2088-4.676 1.9696zm-47.974 136.34c2.624-.15241 2.7386-.1846 2.9874-.83898.14229-.37427.19455-.84771.11612-1.0521-.0784-.20438-.15553-2.9778-.17134-6.1632-.0255-5.1312-.0783-5.8056-.46351-5.914-.84925-.239-34.107-.24458-35.276-.006-.998.20374-1.098.88059-1.1001 7.4469-.002 4.8925.0555 5.68.44309 6.1082.42113.46534 1.1112.49266 12.898.51061 6.8494.0104 12.494.0597 12.544.10949.11429.11474 4.4619.006 8.023-.20105zm-28.446-1.4672c-.47589-.5783-1.2014-3.3915-1.1775-4.5658.0121-.59604-.1658-1.66-.3954-2.3642-.32046-.98302-.34493-1.3518-.10531-1.5875.49978-.49149 1.4435.83284 1.8326 2.5719.20352.90942.46083 1.4755.64304 1.4148.16707-.0557.49709-.86595.73338-1.8006.33972-1.3438.54443-1.7165.97835-1.7814.45668-.0683.62653.16469 1.0125 1.3891.25506.80915.54618 1.4712.64694 1.4712.20695 0 .51392-1.3462.51392-2.2537 0-.5442.44203-.92127 1.08-.92127.31246 0 .31704 2.9602.006 3.7579-.13042.33427-.38564 1.4412-.56714 2.4598-.42169 2.3666-.4821 2.5136-1.0336 2.5136-.61015 0-1.0506-1.0357-1.2494-2.9381-.0897-.85789-.25543-1.5598-.36836-1.5598-.11292 0-.46218.77186-.77612 1.7152-.70038 2.1047-1.3428 3.0026-1.7736 2.4791zm7.353-.32822c-.22445-.27044-.2304-.69895-.0226-1.6262.25451-1.1357.22742-1.3172-.27671-1.8538-.30737-.32718-.45031-.66195-.31765-.74394.44005-.27197 3.6255-.00039 4.1989.35797.49226.30767.6563.27965 1.2924-.22075.89023-.70025 1.495-.72632 2.0715-.0893.85984.95012.2276 2.0381-1.2819 2.206-1.2389.13779-1.0033.83155.39687 1.1688.74632.17979 1.2226.45131 1.2762.72761.0694.35749-.1344.44078-1.0784.44078-1.4216 0-2.4235-.89004-2.4377-2.1654-.0123-1.1082-.71744-1.5532-1.4338-.90493-.29131.26363-.61108.85003-.71059 1.3031-.35217 1.6034-1.0347 2.1733-1.6765 1.4zm9.8441-.29508c-.73732-.51643-1.2584-2.057-.91362-2.7012.68203-1.2744 2.1309-1.917 2.8042-1.2436.56105.56105.42254 1.2887-.25465 1.3378-.28844.0209-.68081.0507-.87193.0661-.22872.0185-.31916.32203-.26458.88802.0684.70924.19879.86492.74436.88858 1.1891.0516 1.3229.0991 1.3229.46962 0 .70096-1.7069.89688-2.5667.29462zm7.835-.0274c-.19404-.23381-.47949-.68029-.63433-.99219-.15485-.3119-.54108-.60444-.8583-.65008-.4593-.0661-.62279.0956-.80277.79375-.15732.61031-.40216.90243-.80568.96128-.49008.0715-.57967-.0423-.57967-.7361 0-.45136.17859-1.2481.39688-1.7705.21828-.52242.3986-1.3223.40072-1.7774.002-.45517.18643-1.3519.40958-1.9927.4683-1.3448.37144-1.8017-.40773-1.9232-.88932-.13867-.7485-.60803.21002-.70003 1.6905-.16227 1.8173.2549 1.2108 3.9841-.2073 1.2747.41707 1.6082 1.3573.72493.53078-.49864.70942-.54406 1.0449-.26566.60081.49862.49609.79583-.38912 1.1044-.46585.1624-.79375.46416-.79375.73048 0 .24958.35719.79599.79375 1.2142.43657.41825.79375.97631.79375 1.2401 0 .60315-.86205.63809-1.3463.0546zm-118.5-39.285c.16243-.30351.22044-.62672.12891-.71825-.24806-.24806-1.0544.33638-1.1526.83541-.12419.63103.67206.5399 1.0237-.11716zm-5.9869.12664c.44418-.17045.58642-.89773.17557-.89773-.54279 0-1.08.34309-1.08.68976 0 .40014.25239.45817.9044.20797z"/>
</svg>
